<svg xmlns="http://www.w3.org/2000/svg" width="198" height="40" viewBox="0 0 198 40" fill="none"><path d="M18.0728 32.9629C17.6353 32.9902 17.0884 32.9766 16.4321 32.9219C15.8032 32.8672 15.2153 32.9629 14.6685 33.209C13.2192 33.1543 11.7427 32.9766 10.2388 32.6758C8.73486 32.375 7.354 32.0059 6.09619 31.5684C5.82275 31.2676 5.54932 30.9941 5.27588 30.748C5.00244 30.4746 4.6333 30.2832 4.16846 30.1738C3.51221 29.6543 2.979 29.0254 2.56885 28.2871C2.15869 27.5215 1.83057 26.7148 1.58447 25.8672C1.33838 25.0195 1.17432 24.1582 1.09229 23.2832C1.01025 22.3809 0.98291 21.5195 1.01025 20.6992C1.42041 19.4688 1.99463 18.416 2.73291 17.541C3.49854 16.6387 4.27783 15.75 5.0708 14.875C5.42627 14.7109 5.68604 14.5469 5.8501 14.3828C6.0415 14.1914 6.23291 14.0273 6.42432 13.8906C6.64307 13.7266 6.84814 13.5762 7.03955 13.4395C7.2583 13.2754 7.44971 13.084 7.61377 12.8652C8.18799 12.7285 8.68018 12.5371 9.09033 12.291C9.52783 12.0176 9.95166 11.7441 10.3618 11.4707C10.772 11.1699 11.1958 10.8965 11.6333 10.6504C12.0708 10.4043 12.5767 10.2129 13.1509 10.0762C13.3696 9.83008 13.6294 9.63867 13.9302 9.50195C14.231 9.33789 14.5317 9.1875 14.8325 9.05078C15.1606 8.88672 15.4614 8.72266 15.7349 8.55859C16.0356 8.39453 16.2681 8.17578 16.4321 7.90234C16.5688 8.12109 16.7603 8.20312 17.0063 8.14844C17.2524 8.06641 17.4849 7.98438 17.7036 7.90234C17.8403 7.875 17.9497 7.90234 18.0317 7.98438C18.1411 8.06641 18.2368 8.14844 18.3188 8.23047C18.4009 8.3125 18.4692 8.36719 18.5239 8.39453C18.606 8.39453 18.6743 8.32617 18.729 8.18945C18.8657 8.18945 18.9067 8.25781 18.8521 8.39453C18.7974 8.53125 18.7563 8.62695 18.729 8.68164C18.9478 8.6543 19.1255 8.70898 19.2622 8.8457C19.4263 8.95508 19.6724 9.02344 20.0005 9.05078C20.1099 9.1875 20.1372 9.29688 20.0825 9.37891C20.0278 9.43359 20.0005 9.54297 20.0005 9.70703C20.8208 9.95312 21.3403 10.3496 21.5591 10.8965C21.7778 11.416 21.7915 11.9629 21.6001 12.5371C21.4087 13.1113 21.0669 13.6445 20.5747 14.1367C20.0825 14.6289 19.5493 14.957 18.9751 15.1211C17.6626 15.4766 16.4185 15.873 15.2427 16.3105C14.0942 16.7207 13.1509 17.3359 12.4126 18.1562C11.7563 18.3477 11.1685 18.6074 10.6489 18.9355C10.1567 19.2363 9.67822 19.5918 9.21338 20.002C8.77588 20.3848 8.35205 20.7949 7.94189 21.2324C7.55908 21.6426 7.14893 22.0527 6.71143 22.4629C6.73877 22.8457 6.67041 23.1465 6.50635 23.3652C6.36963 23.5566 6.23291 23.7617 6.09619 23.9805C6.15088 24.3906 6.24658 24.7598 6.3833 25.0879C6.52002 25.3887 6.67041 25.6895 6.83447 25.9902C8.63916 26.5371 10.5532 26.8789 12.5767 27.0156C14.6274 27.1523 16.6782 27.2344 18.729 27.2617C18.9204 27.5352 19.1392 27.7949 19.3853 28.041C19.6587 28.2598 19.9048 28.5059 20.1235 28.7793C20.3423 29.0254 20.52 29.3125 20.6567 29.6406C20.7935 29.9414 20.8208 30.3242 20.7388 30.7891C20.356 31.1992 19.9321 31.582 19.4673 31.9375C19.0024 32.2656 18.5376 32.6074 18.0728 32.9629Z" fill="black"></path><path d="M46.4966 20.5762C46.4692 20.9043 46.4966 21.2188 46.5786 21.5195C46.6606 21.8203 46.7563 22.1211 46.8657 22.4219C47.0024 22.6953 47.1255 22.9824 47.2349 23.2832C47.3442 23.584 47.4263 23.8848 47.481 24.1855C47.5356 24.5684 47.5356 24.9922 47.481 25.457C47.4263 25.8945 47.3306 26.332 47.1938 26.7695C47.0571 27.1797 46.8794 27.5625 46.6606 27.918C46.4419 28.2461 46.1821 28.4922 45.8813 28.6562C45.4985 29.1484 45.0337 29.5312 44.4868 29.8047C43.9399 30.0781 43.4341 30.4062 42.9692 30.7891C42.6685 30.9805 42.3267 31.1172 41.9438 31.1992C41.5884 31.2812 41.2192 31.3633 40.8364 31.4453C40.5356 31.6094 40.1802 31.7871 39.77 31.9785C39.3599 32.1426 38.936 32.3066 38.4985 32.4707C38.061 32.6074 37.6235 32.7168 37.186 32.7988C36.7485 32.8535 36.3657 32.8672 36.0376 32.8398C35.2173 33.1406 34.4106 33.332 33.6177 33.4141C32.8521 33.5234 31.9497 33.4688 30.9106 33.25C29.9263 33.3867 29.0103 33.3457 28.1626 33.127C27.3423 32.9082 26.604 32.5664 25.9478 32.1016C25.3188 31.6094 24.7583 31.0352 24.2661 30.3789C23.8013 29.6953 23.4185 28.9844 23.1177 28.2461C22.8989 26.6875 22.9536 25.2793 23.2817 24.0215C23.6099 22.7363 24.0747 21.5605 24.6763 20.4941C25.3052 19.4004 26.0161 18.4023 26.8091 17.5C27.6021 16.5703 28.3677 15.668 29.106 14.793C29.27 14.8477 29.3931 14.8477 29.4751 14.793C29.5845 14.7109 29.6802 14.6152 29.7622 14.5059C29.8442 14.3691 29.9263 14.2461 30.0083 14.1367C30.1177 14.0273 30.2407 13.959 30.3774 13.9316C30.5688 13.5215 30.8423 13.2207 31.1978 13.0293C31.5806 12.8105 31.8813 12.5098 32.1001 12.127C32.3462 12.0723 32.5513 11.9902 32.7153 11.8809C32.8794 11.7715 33.0298 11.6484 33.1665 11.5117C33.3306 11.375 33.4946 11.252 33.6587 11.1426C33.8228 11.0059 34.0142 10.9102 34.2329 10.8555V10.4043C34.7251 10.1855 35.0806 9.93945 35.2993 9.66602C35.5454 9.36523 35.8325 9.00977 36.1606 8.59961C36.4067 8.57227 36.5981 8.55859 36.7349 8.55859C36.8989 8.55859 37.1313 8.53125 37.4321 8.47656C37.6509 8.09375 37.8423 7.80664 38.0063 7.61523C38.1978 7.42383 38.4712 7.21875 38.8267 7C39.1548 7.16406 39.5103 7.27344 39.8931 7.32812C40.3032 7.38281 40.6587 7.56055 40.9595 7.86133C40.9868 8.13477 41.0688 8.35352 41.2056 8.51758C41.3423 8.6543 41.4927 8.79102 41.6567 8.92773C41.8208 9.03711 41.9712 9.16016 42.1079 9.29688C42.272 9.43359 42.3813 9.625 42.436 9.87109C42.5454 9.89844 42.6138 9.88477 42.6411 9.83008C42.6958 9.77539 42.7778 9.76172 42.8872 9.78906C42.9692 10.1719 43.0649 10.4316 43.1743 10.5684C43.2837 10.6777 43.3931 10.9102 43.5024 11.2656C43.3657 11.5391 43.2563 11.8262 43.1743 12.127C43.1196 12.4004 42.9556 12.6055 42.6821 12.7422C42.6548 12.9336 42.7095 13.043 42.8462 13.0703C42.9829 13.0703 43.0649 13.1387 43.0923 13.2754C43.1196 13.5215 43.0786 13.6992 42.9692 13.8086C43.6255 14.875 44.2134 16.0098 44.7329 17.2129C45.2524 18.3887 45.8403 19.5098 46.4966 20.5762ZM41.3696 24.4727C41.479 24.1719 41.6157 23.9258 41.7798 23.7344C41.9712 23.543 42.0806 23.2559 42.1079 22.873C41.9712 22.6543 41.8892 22.4902 41.8618 22.3809C41.8345 22.2441 41.8208 22.0391 41.8208 21.7656C41.2192 20.918 40.6997 20.0156 40.2622 19.0586C39.8247 18.0742 39.3325 17.1582 38.7856 16.3105C38.731 16.4199 38.6353 16.5293 38.4985 16.6387C38.3618 16.748 38.2114 16.7207 38.0474 16.5566C37.9927 16.7754 37.897 16.9395 37.7603 17.0488C37.6235 17.1309 37.4731 17.1719 37.3091 17.1719C37.145 17.1445 36.9673 17.1035 36.7759 17.0488C36.6118 16.9668 36.4614 16.8711 36.3247 16.7617C35.5317 17.3906 34.7388 18.0059 33.9458 18.6074C33.1528 19.209 32.4419 19.9062 31.813 20.6992C31.7036 20.7539 31.6353 20.7812 31.6079 20.7812C31.5806 20.7539 31.4985 20.7676 31.3618 20.8223C31.1431 21.3418 30.8696 21.8203 30.5415 22.2578C30.2407 22.668 29.9399 23.0918 29.6392 23.5293C29.3384 23.9668 29.0786 24.4316 28.8599 24.9238C28.6411 25.416 28.5181 25.9902 28.4907 26.6465C28.9556 27.0293 29.5024 27.2617 30.1313 27.3438C30.7603 27.4258 31.4028 27.4395 32.0591 27.3848C32.7427 27.3301 33.3989 27.248 34.0278 27.1387C34.6841 27.002 35.2856 26.9336 35.8325 26.9336C36.981 26.6602 37.9653 26.3047 38.7856 25.8672C39.606 25.4023 40.4673 24.9375 41.3696 24.4727Z" fill="black"></path><path d="M57.4067 25.416C57.1606 25.4707 56.9829 25.6211 56.8735 25.8672C56.7642 26.0859 56.6548 26.3184 56.5454 26.5645C56.4634 26.8105 56.3677 27.043 56.2583 27.2617C56.1763 27.4531 56.0396 27.5488 55.8481 27.5488C55.8208 27.7676 55.7388 27.959 55.6021 28.123C55.4927 28.2871 55.3833 28.4648 55.2739 28.6562C55.1646 28.8203 55.0825 29.0117 55.0278 29.2305C54.9731 29.4219 55.0005 29.6543 55.1099 29.9277C54.8911 30.0918 54.7544 30.3242 54.6997 30.625C54.645 30.9258 54.5767 31.2129 54.4946 31.4863C54.4399 31.7598 54.3306 31.9922 54.1665 32.1836C54.0024 32.375 53.7017 32.457 53.2642 32.4297C53.1821 32.5391 53.1685 32.6074 53.2231 32.6348C53.2778 32.6621 53.3188 32.7578 53.3462 32.9219C53.0454 32.8672 52.813 32.8809 52.6489 32.9629C52.5122 33.0723 52.3345 33.1406 52.1157 33.168C51.5962 33.0039 51.1587 32.7168 50.8032 32.3066C50.4751 31.8965 50.1743 31.4453 49.9009 30.9531C49.6548 30.4336 49.4224 29.9141 49.2036 29.3945C49.0122 28.875 48.8208 28.4238 48.6294 28.041C48.7114 27.7402 48.7251 27.4531 48.6704 27.1797C48.6157 26.8789 48.52 26.6328 48.3833 26.4414C49.7231 23.5977 51.186 20.5625 52.772 17.3359C54.3579 14.1094 55.8618 10.9238 57.2837 7.7793C57.9126 8.02539 58.5278 8.3125 59.1294 8.64062C59.7583 8.94141 60.3188 9.29688 60.811 9.70703C61.3306 10.1172 61.7681 10.5957 62.1235 11.1426C62.479 11.6621 62.7114 12.25 62.8208 12.9062C62.7661 13.0703 62.6978 13.1387 62.6157 13.1113C62.561 13.0566 62.5063 13.0703 62.4517 13.1523C62.561 13.2891 62.6157 13.3848 62.6157 13.4395C62.6431 13.4941 62.6431 13.5488 62.6157 13.6035C62.6157 13.6582 62.6157 13.7402 62.6157 13.8496C62.6157 13.9316 62.6567 14.0547 62.7388 14.2188C62.6294 14.1914 62.5474 14.2051 62.4927 14.2598C62.4653 14.3145 62.3833 14.3145 62.2466 14.2598C62.356 14.5605 62.3833 14.8066 62.3286 14.998C62.3013 15.1895 62.2466 15.3672 62.1646 15.5312C62.0825 15.668 62.0142 15.832 61.9595 16.0234C61.9048 16.1875 61.9185 16.4062 62.0005 16.6797C61.9185 16.6797 61.8501 16.707 61.7954 16.7617C61.7681 16.7891 61.7407 16.8301 61.7134 16.8848C61.686 16.9121 61.645 16.9531 61.5903 17.0078C61.563 17.0352 61.5083 17.0352 61.4263 17.0078C61.5083 17.6094 61.5356 18.2109 61.5083 18.8125C61.481 19.4141 61.4536 20.0293 61.4263 20.6582C61.4263 21.2598 61.4399 21.9023 61.4673 22.5859C61.4946 23.2422 61.5903 23.9258 61.7544 24.6367C62.7388 24.0625 63.5181 23.3242 64.0923 22.4219C64.6938 21.5195 65.1724 20.5078 65.5278 19.3867C65.9106 18.2656 66.1978 17.0625 66.3892 15.7773C66.5806 14.4922 66.7856 13.1797 67.0044 11.8398C67.2505 11.5938 67.4419 11.293 67.5786 10.9375C67.7153 10.582 67.8384 10.2129 67.9478 9.83008C68.0571 9.41992 68.1665 9.02344 68.2759 8.64062C68.3853 8.23047 68.522 7.86133 68.686 7.5332C69.0962 7.58789 69.438 7.72461 69.7114 7.94336C70.0122 8.13477 70.2856 8.35352 70.5317 8.59961C70.7778 8.81836 71.0376 9.03711 71.311 9.25586C71.5845 9.44727 71.9263 9.57031 72.3364 9.625C72.6646 10.0898 72.9653 10.541 73.2388 10.9785C73.5122 11.416 73.6899 11.8809 73.772 12.373C73.6353 12.5918 73.5259 12.8379 73.4438 13.1113C73.3892 13.3848 73.3208 13.6582 73.2388 13.9316C73.1567 14.2051 73.0474 14.4648 72.9106 14.7109C72.7739 14.9297 72.5825 15.1211 72.3364 15.2852C72.2544 15.9961 72.145 16.6523 72.0083 17.2539C71.8989 17.8281 71.7759 18.4023 71.6392 18.9766C71.5298 19.5508 71.4341 20.1523 71.3521 20.7812C71.27 21.3828 71.2427 22.0527 71.27 22.791C71.0513 23.4199 70.8188 24.0898 70.5728 24.8008C70.3267 25.5117 70.1353 26.1543 69.9985 26.7285C69.561 27.084 69.2192 27.5078 68.9731 28C68.7271 28.4922 68.4673 28.9844 68.1938 29.4766C68.0845 29.5859 68.0161 29.6133 67.9888 29.5586C67.9614 29.5039 67.8657 29.4629 67.7017 29.4355C67.729 29.5449 67.729 29.627 67.7017 29.6816C67.6743 29.7363 67.6333 29.791 67.5786 29.8457C67.5513 29.873 67.5239 29.9277 67.4966 30.0098C67.4966 30.0918 67.5239 30.2012 67.5786 30.3379C67.1958 30.502 66.854 30.7344 66.5532 31.0352C66.2524 31.3359 65.9243 31.6094 65.5688 31.8555C65.2407 32.1016 64.8306 32.2656 64.3384 32.3477C63.8735 32.4297 63.2583 32.334 62.4927 32.0605C61.3716 31.2402 60.3735 30.2969 59.4985 29.2305C58.6509 28.1641 57.9536 26.8926 57.4067 25.416Z" fill="black"></path><path d="M96.0435 13.1523C95.3599 13.1523 94.6216 13.207 93.8286 13.3164C93.0356 13.3984 92.2563 13.4941 91.4907 13.6035C90.9438 13.6855 90.4106 13.7539 89.8911 13.8086C89.3989 13.8633 88.9478 13.9043 88.5376 13.9316C88.3462 14.5332 88.1548 15.0664 87.9634 15.5312C87.772 15.9961 87.5669 16.4473 87.3481 16.8848C87.1294 17.3496 86.9243 17.8281 86.7329 18.3203C86.5688 18.7852 86.4048 19.291 86.2407 19.8379C85.9673 20.2754 85.7349 20.6855 85.5435 21.0684C85.3794 21.4238 85.2427 21.834 85.1333 22.2988C84.8052 22.709 84.5591 23.1465 84.395 23.6113C84.231 24.0488 84.1079 24.4316 84.0259 24.7598L83.8618 25.252C83.6978 25.416 83.6021 25.5527 83.5747 25.6621C83.5474 25.7441 83.479 25.8262 83.3696 25.9082C83.3423 26.209 83.2466 26.5098 83.0825 26.8105C83.0278 26.9473 82.9868 27.084 82.9595 27.2207C82.9321 27.3301 82.9185 27.4121 82.9185 27.4668C82.9185 27.7402 82.8501 27.918 82.7134 28C82.7407 28.1367 82.7407 28.2871 82.7134 28.4512C82.686 28.5879 82.6587 28.7246 82.6313 28.8613C82.5493 29.1895 82.522 29.4492 82.5493 29.6406C82.6313 29.75 82.6997 29.8457 82.7544 29.9277C82.8364 30.0098 82.8911 30.1191 82.9185 30.2559C83.0825 30.3652 83.2056 30.4336 83.2876 30.4609C83.397 30.543 83.561 30.6387 83.7798 30.748L84.1489 31.1582C84.2856 31.9512 84.1626 32.5801 83.7798 33.0449C83.3696 33.5645 82.6724 33.8242 81.688 33.8242H81.1958C81.0591 33.6875 80.9771 33.5781 80.9497 33.4961C80.731 33.4141 80.5532 33.3457 80.4165 33.291C80.2798 33.2363 80.1567 33.127 80.0474 32.9629C79.6919 32.7988 79.4048 32.6621 79.186 32.5527L78.8169 32.3477C78.8169 32.0469 78.8169 31.8828 78.8169 31.8555C78.6255 31.6094 78.4751 31.3359 78.3657 31.0352C78.2837 30.7344 78.2153 30.4336 78.1606 30.1328C78.106 29.8867 78.0376 29.6543 77.9556 29.4355C77.9009 29.2168 77.8188 29.0254 77.7095 28.8613C77.6548 27.2754 77.8052 25.9355 78.1606 24.8418C78.5161 23.748 78.8853 22.6953 79.2681 21.6836C79.4868 21.1367 79.7056 20.5898 79.9243 20.043C80.1431 19.4688 80.3345 18.8809 80.4985 18.2793L80.8677 17.8691C81.0591 17.4316 81.2095 17.0762 81.3188 16.8027C81.4556 16.502 81.5923 16.2012 81.729 15.9004C81.811 15.709 81.8794 15.5312 81.9341 15.3672C82.0161 15.1758 82.0845 15.0117 82.1392 14.875C81.9751 14.875 81.8247 14.8887 81.688 14.916C81.5513 14.916 81.4146 14.9297 81.2778 14.957C81.1138 14.9844 80.9634 15.0117 80.8267 15.0391C80.6899 15.0391 80.5532 15.0391 80.4165 15.0391C80.2251 15.0391 80.0884 15.0254 80.0063 14.998C79.7056 15.1348 79.3774 15.2031 79.022 15.2031H78.6118C78.5298 15.2031 78.4478 15.2031 78.3657 15.2031C78.311 15.1758 78.2563 15.1621 78.2017 15.1621C77.9282 15.1621 77.7095 15.2031 77.5454 15.2852C77.2173 15.2852 76.9028 15.2852 76.6021 15.2852H76.1919C76.1372 15.2852 76.0688 15.2988 75.9868 15.3262C75.9048 15.3262 75.8364 15.3262 75.7817 15.3262C75.5903 15.3262 75.3853 15.3125 75.1665 15.2852C74.9478 15.2305 74.7153 15.1348 74.4692 14.998C74.1411 14.5605 73.9224 14.3281 73.813 14.3008L73.4438 13.8086C73.4165 13.6445 73.3755 13.4941 73.3208 13.3574C73.2661 13.1934 73.2114 13.0156 73.1567 12.8242C73.0474 12.5508 72.938 12.2637 72.8286 11.9629C72.7466 11.6348 72.7056 11.252 72.7056 10.8145C72.7329 10.5957 72.7876 10.4316 72.8696 10.3223C72.9517 10.2129 73.02 10.1172 73.0747 10.0352L73.1978 9.41992L73.731 9.46094H74.8794C75.7544 9.46094 76.6431 9.43359 77.5454 9.37891C78.4478 9.29688 79.3774 9.21484 80.3345 9.13281C80.8813 9.07812 81.4282 9.02344 81.9751 8.96875C82.5493 8.91406 83.1372 8.85938 83.7388 8.80469C83.8481 8.55859 83.9575 8.32617 84.0669 8.10742L84.4771 7.90234C84.9692 7.875 85.311 7.94336 85.5024 8.10742C85.7212 8.24414 85.8989 8.38086 86.0356 8.51758C86.6372 8.46289 87.2388 8.4082 87.8403 8.35352C88.4692 8.27148 89.0981 8.17578 89.7271 8.06641C90.6567 7.92969 91.5864 7.80664 92.5161 7.69727C93.4731 7.58789 94.3892 7.5332 95.2642 7.5332C95.647 7.5332 96.0161 7.54688 96.3716 7.57422C96.7271 7.60156 97.0552 7.64258 97.356 7.69727L97.7661 7.98438C97.8481 8.14844 97.9575 8.29883 98.0942 8.43555C98.2583 8.57227 98.4224 8.70898 98.5864 8.8457C98.9146 9.14648 99.2427 9.50195 99.5708 9.91211C99.8989 10.3223 100.022 10.9238 99.9399 11.7168C99.7212 12.0449 99.5571 12.2363 99.4478 12.291L99.0786 12.7832L98.6685 12.7422C98.5044 12.7422 98.354 12.7695 98.2173 12.8242C98.0806 12.8516 97.9438 12.8926 97.8071 12.9473C97.6978 13.002 97.5884 13.0566 97.479 13.1113C97.3696 13.1387 97.2466 13.166 97.1099 13.1934C96.8638 13.1934 96.6587 13.1934 96.4946 13.1934C96.3579 13.166 96.2075 13.1523 96.0435 13.1523Z" fill="black"></path><path d="M115.731 9.78906C115.758 9.98047 115.758 10.1309 115.731 10.2402C115.731 10.3223 115.717 10.4043 115.69 10.4863C115.69 10.5684 115.69 10.6641 115.69 10.7734C115.69 10.8555 115.717 10.9922 115.772 11.1836C115.198 12.1133 114.528 12.7559 113.762 13.1113C113.024 13.4395 112.217 13.6855 111.342 13.8496C110.467 13.9863 109.565 14.1367 108.635 14.3008C107.733 14.4648 106.831 14.8203 105.928 15.3672C105.573 15.2305 105.245 15.2305 104.944 15.3672C104.67 15.5039 104.26 15.5449 103.713 15.4902C103.549 15.6543 103.344 15.7773 103.098 15.8594C102.852 15.9141 102.606 15.9824 102.36 16.0645C102.469 16.3105 102.51 16.5703 102.483 16.8438C102.483 17.0898 102.524 17.2949 102.606 17.459C103.563 17.541 104.616 17.5273 105.764 17.418C106.94 17.3086 108.088 17.2402 109.209 17.2129C109.237 17.3496 109.223 17.4453 109.168 17.5C109.114 17.5273 109.1 17.5957 109.127 17.7051C109.319 17.8418 109.51 18.0195 109.702 18.2383C109.893 18.4297 110.084 18.6211 110.276 18.8125C110.467 19.0039 110.659 19.168 110.85 19.3047C111.069 19.4141 111.315 19.4551 111.588 19.4277C111.698 19.6465 111.766 19.8926 111.793 20.166C111.848 20.4121 111.821 20.6719 111.711 20.9453C111.274 21.2461 110.836 21.5605 110.399 21.8887C109.961 22.1895 109.497 22.4629 109.004 22.709C108.54 22.9551 108.034 23.1602 107.487 23.3242C106.967 23.4609 106.379 23.5156 105.723 23.4883C105.586 23.4883 105.477 23.4883 105.395 23.4883C105.34 23.4883 105.258 23.4473 105.149 23.3652C104.93 23.502 104.616 23.543 104.206 23.4883C103.823 23.4336 103.522 23.4746 103.303 23.6113C103.002 23.4746 102.633 23.4199 102.196 23.4473C101.786 23.4473 101.417 23.3926 101.088 23.2832C100.651 23.8574 100.254 24.4727 99.8989 25.1289C99.5435 25.7852 99.229 26.4824 98.9556 27.2207C99.8853 27.3574 100.651 27.4121 101.252 27.3848C101.881 27.3574 102.469 27.3164 103.016 27.2617C103.563 27.1797 104.124 27.1113 104.698 27.0566C105.272 26.9746 105.997 26.9473 106.872 26.9746C107.418 26.6738 108.061 26.4824 108.799 26.4004C109.565 26.291 110.262 26.127 110.891 25.9082C111.11 25.9902 111.301 26.1406 111.465 26.3594C111.629 26.5508 111.78 26.7422 111.917 26.9336C112.081 27.0977 112.245 27.248 112.409 27.3848C112.573 27.5215 112.778 27.5762 113.024 27.5488C113.133 27.6582 113.202 27.7949 113.229 27.959C113.284 28.0957 113.325 28.2324 113.352 28.3691C113.379 28.5059 113.42 28.6289 113.475 28.7383C113.557 28.8203 113.68 28.8477 113.844 28.8203C113.434 29.7227 112.956 30.4199 112.409 30.9121C111.889 31.377 111.288 31.7324 110.604 31.9785C109.92 32.2246 109.155 32.416 108.307 32.5527C107.487 32.6895 106.571 32.8535 105.559 33.0449C105.313 33.0996 105.108 33.0859 104.944 33.0039C104.78 32.9492 104.588 32.9219 104.37 32.9219C103.741 33.0586 102.989 33.1816 102.114 33.291C101.239 33.4004 100.35 33.4414 99.4478 33.4141C98.5454 33.3867 97.6841 33.2637 96.8638 33.0449C96.0435 32.8535 95.3735 32.498 94.854 31.9785C94.6353 31.7871 94.4849 31.5684 94.4028 31.3223C94.3481 31.0488 94.1704 30.8438 93.8696 30.707C93.8423 30.3516 93.7876 29.9551 93.7056 29.5176C93.6235 29.0801 93.5415 28.6289 93.4595 28.1641C93.3774 27.6719 93.3091 27.1934 93.2544 26.7285C93.2271 26.2637 93.2544 25.8398 93.3364 25.457C93.4185 25.0469 93.5825 24.6777 93.8286 24.3496C94.1021 24.0215 94.1978 23.666 94.1157 23.2832C94.2524 23.2559 94.3345 23.1875 94.3618 23.0781C94.3892 22.9414 94.4985 22.8867 94.6899 22.9141C94.854 22.4219 95.0317 21.957 95.2231 21.5195C95.4146 21.082 95.606 20.6582 95.7974 20.248C96.0161 19.8379 96.2212 19.4277 96.4126 19.0176C96.6313 18.5801 96.8364 18.1016 97.0278 17.582C96.645 17.2266 96.3579 16.8438 96.1665 16.4336C96.0024 15.9961 95.8794 15.5723 95.7974 15.1621C95.7153 14.7246 95.647 14.2871 95.5923 13.8496C95.5376 13.3848 95.4419 12.9199 95.3052 12.4551C95.5786 12.0449 95.9067 11.7168 96.2896 11.4707C96.6997 11.1973 97.1372 10.9785 97.6021 10.8145C98.0669 10.6504 98.5728 10.5137 99.1196 10.4043C99.6665 10.2949 100.241 10.1719 100.842 10.0352C101.936 9.67969 102.907 9.40625 103.754 9.21484C104.629 9.02344 105.477 8.87305 106.297 8.76367C107.145 8.62695 108.02 8.50391 108.922 8.39453C109.825 8.28516 110.85 8.12109 111.999 7.90234C112.245 8.14844 112.477 8.27148 112.696 8.27148C112.805 8.02539 112.928 7.95703 113.065 8.06641C113.229 8.14844 113.297 8.06641 113.27 7.82031C113.543 8.28516 113.885 8.68164 114.295 9.00977C114.733 9.31055 115.211 9.57031 115.731 9.78906Z" fill="black"></path><path d="M143.129 32.1426C142.856 32.2793 142.596 32.4023 142.35 32.5117C142.131 32.6211 141.872 32.6758 141.571 32.6758C140.504 31.8828 139.944 30.502 139.889 28.5332C139.862 26.5645 140.286 24.0625 141.161 21.0273C141.297 20.9453 141.366 20.7812 141.366 20.5352L140.997 20.125C140.887 20.125 140.778 20.1387 140.668 20.166C140.586 20.1934 140.518 20.2891 140.463 20.4531C139.752 20.9727 138.973 21.5195 138.125 22.0938C137.278 22.6406 136.389 23.1602 135.459 23.6523C134.557 24.1172 133.627 24.5 132.67 24.8008C131.741 25.1016 130.825 25.252 129.922 25.252C127.625 25.252 125.903 24.0898 124.754 21.7656L124.426 21.1504L124.098 21.6836C124.016 21.793 123.893 22.0254 123.729 22.3809C123.565 22.709 123.401 23.0918 123.237 23.5293C123.073 23.9668 122.922 24.418 122.786 24.8828C122.676 25.3203 122.635 25.7031 122.663 26.0312C122.417 26.2773 122.157 26.5645 121.883 26.8926C121.61 27.2207 121.405 27.5898 121.268 28C121.213 28.2188 121.241 28.4238 121.35 28.6152C121.295 28.8613 121.172 29.0527 120.981 29.1895C120.872 29.3262 120.749 29.4629 120.612 29.5996C120.502 29.709 120.407 29.832 120.325 29.9688C120.27 30.1055 120.229 30.2422 120.202 30.3789C120.202 30.5156 120.188 30.6523 120.161 30.7891C120.161 30.9805 120.133 31.1582 120.079 31.3223C119.614 32.2793 119.245 32.8945 118.971 33.168C118.698 33.4688 118.329 33.6191 117.864 33.6191C117.645 33.6191 117.29 33.5781 116.797 33.4961C116.442 33.1133 116.114 32.5938 115.813 31.9375C115.54 31.2539 115.321 30.5293 115.157 29.7637C115.02 28.998 114.952 28.2324 114.952 27.4668C114.979 26.6738 115.116 25.9902 115.362 25.416C115.362 25.3887 115.471 25.1152 115.69 24.5957C115.909 24.0762 116.182 23.4062 116.51 22.5859C116.866 21.7656 117.262 20.8633 117.7 19.8789C118.137 18.8672 118.575 17.8965 119.012 16.9668C119.45 16.0098 119.86 15.1348 120.243 14.3418C120.653 13.5488 120.995 12.9473 121.268 12.5371C121.487 12.209 121.678 11.9082 121.842 11.6348C122.034 11.334 122.211 11.0469 122.375 10.7734C122.868 9.92578 123.333 9.22852 123.77 8.68164C124.235 8.10742 124.905 7.65625 125.78 7.32812C126.381 7.57422 126.819 7.86133 127.092 8.18945L127.174 8.64062C127.284 8.91406 127.448 9.05078 127.667 9.05078C127.967 9.13281 128.213 9.21484 128.405 9.29688C128.624 9.35156 128.856 9.40625 129.102 9.46094C129.293 9.67969 129.471 9.93945 129.635 10.2402C129.854 10.5684 130.059 10.8965 130.25 11.2246C130.469 11.5254 130.633 11.8398 130.743 12.168C130.879 12.4688 130.948 12.7832 130.948 13.1113C130.975 13.4395 130.92 13.7812 130.784 14.1367L130.825 14.5469C130.961 14.793 130.989 15.1348 130.907 15.5723C130.879 15.7637 130.866 15.9688 130.866 16.1875C130.866 16.3789 130.893 16.5977 130.948 16.8438C131.44 17.2266 131.877 17.418 132.26 17.418C132.698 17.418 133.094 17.3223 133.45 17.1309C133.833 16.9121 134.188 16.6934 134.516 16.4746C134.735 16.3105 134.954 16.1738 135.172 16.0645C135.391 15.9277 135.61 15.8457 135.829 15.8184C136.321 15.3535 136.758 14.9434 137.141 14.5879C137.551 14.2324 137.975 13.877 138.413 13.5215C139.233 12.8652 140.026 12.1543 140.792 11.3887C141.557 10.623 142.172 9.66602 142.637 8.51758C142.911 8.35352 143.198 8.27148 143.499 8.27148C143.799 8.27148 144.114 8.33984 144.442 8.47656C144.77 8.61328 145.084 8.75 145.385 8.88672C145.467 8.94141 145.536 8.98242 145.59 9.00977C145.672 9.03711 145.741 9.06445 145.795 9.0918C145.795 9.36523 145.905 9.59766 146.124 9.78906C146.233 9.87109 146.301 9.92578 146.329 9.95312C146.356 9.98047 146.397 10.0078 146.452 10.0352C146.862 10.2539 147.122 10.4727 147.231 10.6914C147.422 11.3203 147.764 11.7988 148.256 12.127C148.202 12.4004 148.202 12.6602 148.256 12.9062C148.338 13.125 148.434 13.3574 148.543 13.6035C148.571 13.6855 148.598 13.7676 148.625 13.8496C148.653 13.9316 148.694 14.0273 148.749 14.1367L147.969 14.0547L148.092 14.834C148.147 15.2168 148.106 15.6406 147.969 16.1055C147.86 16.5703 147.723 16.9395 147.559 17.2129C147.586 17.9238 147.6 18.4844 147.6 18.8945C147.627 19.2773 147.614 19.6465 147.559 20.002C147.504 20.3301 147.422 20.6445 147.313 20.9453C147.231 21.2461 147.108 21.5742 146.944 21.9297C147.053 23.6797 146.848 25.2793 146.329 26.7285C145.836 28.1504 145.317 29.4902 144.77 30.748C144.715 30.8848 144.647 31.0215 144.565 31.1582C144.51 31.2949 144.456 31.4316 144.401 31.5684C144.155 31.6504 143.936 31.7461 143.745 31.8555C143.553 31.9375 143.348 32.0332 143.129 32.1426Z" fill="black"></path><path d="M164.417 7.45117C165.565 7.58789 166.59 7.82031 167.493 8.14844C168.395 8.47656 169.161 8.91406 169.79 9.46094C170.227 10.1445 170.637 10.8828 171.02 11.6758C171.43 12.4688 171.731 13.3027 171.922 14.1777C172.141 15.0254 172.237 15.9004 172.209 16.8027C172.209 17.7051 172.018 18.6211 171.635 19.5508C170.842 20.5352 169.872 21.3418 168.723 21.9707C167.602 22.5723 166.385 23.0645 165.073 23.4473C163.76 23.8301 162.393 24.1582 160.971 24.4316C159.577 24.7051 158.209 24.9785 156.87 25.252C156.897 25.8809 156.897 26.5508 156.87 27.2617C156.87 27.9453 156.801 28.6426 156.665 29.3535C156.555 30.0371 156.377 30.707 156.131 31.3633C155.885 32.0195 155.557 32.6211 155.147 33.168C154.682 33.168 154.204 33.2227 153.711 33.332C153.219 33.4688 152.782 33.5781 152.399 33.6602C152.208 33.5508 152.03 33.4414 151.866 33.332C151.729 33.25 151.524 33.1953 151.25 33.168C151.305 32.8945 151.237 32.6211 151.045 32.3477C150.854 32.0469 150.663 31.7461 150.471 31.4453C150.28 31.1445 150.143 30.8574 150.061 30.584C150.006 30.3105 150.143 30.0508 150.471 29.8047C150.28 29.6133 150.184 29.3672 150.184 29.0664C150.375 28.7383 150.54 28.2871 150.676 27.7129C150.84 27.1387 150.963 26.5781 151.045 26.0312C151.155 25.457 151.182 24.9375 151.127 24.4727C151.073 24.0078 150.799 23.666 150.307 23.4473C150.334 23.3926 150.389 23.3652 150.471 23.3652C150.553 23.3652 150.635 23.3516 150.717 23.3242C150.499 23.1602 150.362 22.9277 150.307 22.627C150.28 22.3262 150.184 22.0664 150.02 21.8477C150.075 21.7109 150.116 21.5879 150.143 21.4785C150.17 21.3691 150.266 21.3281 150.43 21.3555C150.348 20.8633 150.348 20.3984 150.43 19.9609C150.54 19.5234 150.69 19.1133 150.881 18.7305C151.073 18.3203 151.305 17.9238 151.579 17.541C151.852 17.1582 152.112 16.7754 152.358 16.3926C152.549 16.3652 152.659 16.3926 152.686 16.4746C152.741 16.5566 152.836 16.543 152.973 16.4336C153.329 16.1602 153.575 15.873 153.711 15.5723C153.848 15.2715 153.917 14.9297 153.917 14.5469C154.108 13.9727 154.34 13.3984 154.614 12.8242C154.887 12.2227 155.188 11.6758 155.516 11.1836C155.844 10.6914 156.2 10.2539 156.583 9.87109C156.993 9.48828 157.417 9.20117 157.854 9.00977C158.182 8.73633 158.592 8.49023 159.084 8.27148C159.577 8.02539 160.11 7.84766 160.684 7.73828C161.258 7.60156 161.833 7.5332 162.407 7.5332C163.008 7.50586 163.555 7.56055 164.047 7.69727C164.184 7.75195 164.252 7.72461 164.252 7.61523C164.28 7.50586 164.334 7.45117 164.417 7.45117ZM162.735 17.2539C163.418 16.9531 164.143 16.7207 164.909 16.5566C165.702 16.3652 166.358 16.0234 166.877 15.5312C166.549 15.2305 166.071 14.9707 165.442 14.752C164.813 14.5059 164.129 14.3555 163.391 14.3008C162.653 14.2461 161.901 14.3145 161.135 14.5059C160.397 14.6699 159.754 14.998 159.208 15.4902C159.043 15.9824 158.907 16.3789 158.797 16.6797C158.688 16.9531 158.538 17.2949 158.346 17.7051C158.401 17.8418 158.483 17.9512 158.592 18.0332C158.729 18.0879 158.825 18.1836 158.879 18.3203C159.508 17.9922 160.137 17.8145 160.766 17.7871C161.422 17.7324 162.079 17.5547 162.735 17.2539Z" fill="black"></path><path d="M194.891 20.5762C194.864 20.9043 194.891 21.2188 194.973 21.5195C195.055 21.8203 195.151 22.1211 195.26 22.4219C195.397 22.6953 195.52 22.9824 195.629 23.2832C195.739 23.584 195.821 23.8848 195.875 24.1855C195.93 24.5684 195.93 24.9922 195.875 25.457C195.821 25.8945 195.725 26.332 195.588 26.7695C195.452 27.1797 195.274 27.5625 195.055 27.918C194.836 28.2461 194.577 28.4922 194.276 28.6562C193.893 29.1484 193.428 29.5312 192.881 29.8047C192.334 30.0781 191.829 30.4062 191.364 30.7891C191.063 30.9805 190.721 31.1172 190.338 31.1992C189.983 31.2812 189.614 31.3633 189.231 31.4453C188.93 31.6094 188.575 31.7871 188.165 31.9785C187.754 32.1426 187.331 32.3066 186.893 32.4707C186.456 32.6074 186.018 32.7168 185.581 32.7988C185.143 32.8535 184.76 32.8672 184.432 32.8398C183.612 33.1406 182.805 33.332 182.012 33.4141C181.247 33.5234 180.344 33.4688 179.305 33.25C178.321 33.3867 177.405 33.3457 176.557 33.127C175.737 32.9082 174.999 32.5664 174.342 32.1016C173.713 31.6094 173.153 31.0352 172.661 30.3789C172.196 29.6953 171.813 28.9844 171.512 28.2461C171.293 26.6875 171.348 25.2793 171.676 24.0215C172.004 22.7363 172.469 21.5605 173.071 20.4941C173.7 19.4004 174.411 18.4023 175.204 17.5C175.997 16.5703 176.762 15.668 177.5 14.793C177.665 14.8477 177.788 14.8477 177.87 14.793C177.979 14.7109 178.075 14.6152 178.157 14.5059C178.239 14.3691 178.321 14.2461 178.403 14.1367C178.512 14.0273 178.635 13.959 178.772 13.9316C178.963 13.5215 179.237 13.2207 179.592 13.0293C179.975 12.8105 180.276 12.5098 180.495 12.127C180.741 12.0723 180.946 11.9902 181.11 11.8809C181.274 11.7715 181.424 11.6484 181.561 11.5117C181.725 11.375 181.889 11.252 182.053 11.1426C182.217 11.0059 182.409 10.9102 182.627 10.8555V10.4043C183.12 10.1855 183.475 9.93945 183.694 9.66602C183.94 9.36523 184.227 9.00977 184.555 8.59961C184.801 8.57227 184.993 8.55859 185.129 8.55859C185.293 8.55859 185.526 8.53125 185.827 8.47656C186.045 8.09375 186.237 7.80664 186.401 7.61523C186.592 7.42383 186.866 7.21875 187.221 7C187.549 7.16406 187.905 7.27344 188.288 7.32812C188.698 7.38281 189.053 7.56055 189.354 7.86133C189.381 8.13477 189.463 8.35352 189.6 8.51758C189.737 8.6543 189.887 8.79102 190.051 8.92773C190.215 9.03711 190.366 9.16016 190.502 9.29688C190.667 9.43359 190.776 9.625 190.831 9.87109C190.94 9.89844 191.008 9.88477 191.036 9.83008C191.09 9.77539 191.172 9.76172 191.282 9.78906C191.364 10.1719 191.459 10.4316 191.569 10.5684C191.678 10.6777 191.788 10.9102 191.897 11.2656C191.76 11.5391 191.651 11.8262 191.569 12.127C191.514 12.4004 191.35 12.6055 191.077 12.7422C191.049 12.9336 191.104 13.043 191.241 13.0703C191.377 13.0703 191.459 13.1387 191.487 13.2754C191.514 13.5215 191.473 13.6992 191.364 13.8086C192.02 14.875 192.608 16.0098 193.127 17.2129C193.647 18.3887 194.235 19.5098 194.891 20.5762ZM189.764 24.4727C189.874 24.1719 190.01 23.9258 190.174 23.7344C190.366 23.543 190.475 23.2559 190.502 22.873C190.366 22.6543 190.284 22.4902 190.256 22.3809C190.229 22.2441 190.215 22.0391 190.215 21.7656C189.614 20.918 189.094 20.0156 188.657 19.0586C188.219 18.0742 187.727 17.1582 187.18 16.3105C187.125 16.4199 187.03 16.5293 186.893 16.6387C186.756 16.748 186.606 16.7207 186.442 16.5566C186.387 16.7754 186.292 16.9395 186.155 17.0488C186.018 17.1309 185.868 17.1719 185.704 17.1719C185.54 17.1445 185.362 17.1035 185.17 17.0488C185.006 16.9668 184.856 16.8711 184.719 16.7617C183.926 17.3906 183.133 18.0059 182.34 18.6074C181.547 19.209 180.836 19.9062 180.208 20.6992C180.098 20.7539 180.03 20.7812 180.002 20.7812C179.975 20.7539 179.893 20.7676 179.756 20.8223C179.538 21.3418 179.264 21.8203 178.936 22.2578C178.635 22.668 178.334 23.0918 178.034 23.5293C177.733 23.9668 177.473 24.4316 177.254 24.9238C177.036 25.416 176.913 25.9902 176.885 26.6465C177.35 27.0293 177.897 27.2617 178.526 27.3438C179.155 27.4258 179.797 27.4395 180.454 27.3848C181.137 27.3301 181.793 27.248 182.422 27.1387C183.079 27.002 183.68 26.9336 184.227 26.9336C185.375 26.6602 186.36 26.3047 187.18 25.8672C188 25.4023 188.862 24.9375 189.764 24.4727Z" fill="black"></path></svg>