<svg xmlns="http://www.w3.org/2000/svg" width="207" height="107" viewBox="0 0 207 107" fill="none"><path d="M39.5765 53.2936C39.2286 53.316 38.7937 53.3048 38.2718 53.2599C37.7717 53.2151 37.3042 53.2936 36.8693 53.4954C35.7169 53.4506 34.5427 53.3048 33.3468 53.0581C32.1509 52.8114 31.0528 52.5087 30.0526 52.1498C29.8351 51.9032 29.6177 51.6789 29.4002 51.4771C29.1828 51.2528 28.8892 51.0958 28.5196 51.0061C27.9977 50.58 27.5737 50.0642 27.2476 49.4587C26.9214 48.8308 26.6605 48.1692 26.4648 47.474C26.2691 46.7788 26.1386 46.0724 26.0734 45.3547C26.0082 44.6147 25.9864 43.9083 26.0082 43.2355C26.3343 42.2263 26.7909 41.3629 27.378 40.6453C27.9869 39.9052 28.6066 39.1764 29.2372 38.4587C29.5198 38.3242 29.7264 38.1896 29.8569 38.055C30.0091 37.8981 30.1613 37.7635 30.3135 37.6514C30.4874 37.5168 30.6505 37.3935 30.8027 37.2813C30.9767 37.1468 31.1289 36.9898 31.2594 36.8104C31.716 36.6983 32.1074 36.5413 32.4335 36.3394C32.7814 36.1152 33.1185 35.8909 33.4446 35.6667C33.7708 35.42 34.1078 35.1957 34.4557 34.9939C34.8036 34.792 35.2059 34.6351 35.6625 34.5229C35.8365 34.3211 36.043 34.1641 36.2822 34.052C36.5214 33.9174 36.7606 33.7941 36.9998 33.682C37.2607 33.5474 37.4999 33.4128 37.7173 33.2783C37.9565 33.1437 38.1414 32.9643 38.2718 32.7401C38.3805 32.9195 38.5327 32.9867 38.7284 32.9419C38.9241 32.8746 39.109 32.8073 39.2829 32.7401C39.3916 32.7176 39.4786 32.7401 39.5438 32.8073C39.6308 32.8746 39.7069 32.9419 39.7722 33.0092C39.8374 33.0765 39.8918 33.1213 39.9352 33.1437C40.0005 33.1437 40.0548 33.0877 40.0983 32.9755C40.207 32.9755 40.2397 33.0316 40.1962 33.1437C40.1527 33.2559 40.1201 33.3344 40.0983 33.3792C40.2723 33.3568 40.4136 33.4016 40.5223 33.5138C40.6528 33.6035 40.8485 33.6595 41.1094 33.682C41.1964 33.7941 41.2181 33.8838 41.1747 33.9511C41.1312 33.9959 41.1094 34.0856 41.1094 34.2202C41.7617 34.422 42.1749 34.7472 42.3488 35.1957C42.5228 35.6218 42.5337 36.0703 42.3815 36.5413C42.2292 37.0122 41.9574 37.4495 41.566 37.8532C41.1747 38.2569 40.7506 38.526 40.294 38.6606C39.2503 38.9521 38.2609 39.2773 37.326 39.6361C36.4127 39.9725 35.6625 40.4771 35.0754 41.1498C34.5536 41.3068 34.0861 41.5199 33.6729 41.789C33.2816 42.0357 32.901 42.3272 32.5314 42.6636C32.1835 42.9776 31.8464 43.314 31.5203 43.6728C31.2159 44.0092 30.8897 44.3456 30.5418 44.682C30.5635 44.9959 30.5092 45.2426 30.3787 45.422C30.27 45.579 30.1613 45.7472 30.0526 45.9266C30.096 46.263 30.1721 46.5657 30.2809 46.8349C30.3896 47.0815 30.5092 47.3282 30.6396 47.5749C32.0748 48.0234 33.5968 48.3038 35.2059 48.4159C36.8367 48.528 38.4675 48.5953 40.0983 48.6177C40.2505 48.842 40.4245 49.055 40.6202 49.2569C40.8376 49.4363 41.0333 49.6381 41.2073 49.8624C41.3812 50.0642 41.5226 50.2997 41.6313 50.5688C41.74 50.8155 41.7617 51.1295 41.6965 51.5107C41.3921 51.8471 41.0551 52.1611 40.6854 52.4526C40.3158 52.7217 39.9461 53.002 39.5765 53.2936Z" fill="black"></path><path d="M62.1794 43.1346C62.1577 43.4037 62.1794 43.6616 62.2447 43.9083C62.3099 44.1549 62.386 44.4016 62.473 44.6483C62.5817 44.8726 62.6796 45.1081 62.7665 45.3547C62.8535 45.6014 62.9187 45.8481 62.9622 46.0948C63.0057 46.4088 63.0057 46.7564 62.9622 47.1376C62.9187 47.4964 62.8426 47.8552 62.7339 48.2141C62.6252 48.5505 62.4839 48.8644 62.3099 49.156C62.136 49.4251 61.9294 49.6269 61.6902 49.7615C61.3858 50.1651 61.0161 50.4791 60.5813 50.7034C60.1464 50.9276 59.7441 51.1967 59.3745 51.5107C59.1353 51.6677 58.8635 51.7798 58.5591 51.8471C58.2764 51.9144 57.9828 51.9817 57.6784 52.0489C57.4392 52.1835 57.1566 52.3293 56.8304 52.4862C56.5042 52.6208 56.1672 52.7554 55.8193 52.8899C55.4714 53.002 55.1235 53.0917 54.7756 53.159C54.4277 53.2039 54.1233 53.2151 53.8623 53.1927C53.21 53.4393 52.5686 53.5963 51.938 53.6636C51.3291 53.7533 50.6116 53.7085 49.7853 53.5291C49.0025 53.6412 48.2741 53.6075 47.6 53.4281C46.9477 53.2487 46.3606 52.9684 45.8388 52.5872C45.3386 52.1835 44.8929 51.7125 44.5015 51.1743C44.1319 50.6137 43.8274 50.0306 43.5882 49.4251C43.4143 48.1468 43.4578 46.9918 43.7187 45.9602C43.9796 44.9062 44.3493 43.9419 44.8277 43.0673C45.3278 42.1702 45.8931 41.3517 46.5237 40.6116C47.1543 39.8491 47.7631 39.1091 48.3502 38.3914C48.4807 38.4363 48.5785 38.4363 48.6437 38.3914C48.7307 38.3242 48.8068 38.2457 48.8721 38.156C48.9373 38.0438 49.0025 37.9429 49.0678 37.8532C49.1547 37.7635 49.2526 37.7074 49.3613 37.685C49.5135 37.3486 49.731 37.1019 50.0136 36.945C50.318 36.7655 50.5572 36.5189 50.7312 36.2049C50.9269 36.16 51.09 36.0928 51.2204 36.0031C51.3509 35.9134 51.4705 35.8124 51.5792 35.7003C51.7097 35.5882 51.8401 35.4873 51.9706 35.3976C52.1011 35.2854 52.2533 35.2069 52.4272 35.1621V34.792C52.8186 34.6126 53.1013 34.4108 53.2752 34.1865C53.4709 33.9399 53.6992 33.6483 53.9602 33.3119C54.1559 33.2895 54.3081 33.2783 54.4168 33.2783C54.5473 33.2783 54.7321 33.2559 54.9713 33.211C55.1452 32.897 55.2974 32.6616 55.4279 32.5046C55.5801 32.3476 55.7976 32.1794 56.0802 32C56.3412 32.1346 56.6238 32.2243 56.9282 32.2691C57.2544 32.314 57.5371 32.4597 57.7763 32.7064C57.798 32.9307 57.8632 33.1101 57.972 33.2446C58.0807 33.3568 58.2003 33.4689 58.3307 33.581C58.4612 33.6707 58.5808 33.7717 58.6895 33.8838C58.82 33.9959 58.907 34.1529 58.9504 34.3547C59.0374 34.3772 59.0918 34.366 59.1135 34.3211C59.157 34.2762 59.2222 34.265 59.3092 34.2875C59.3745 34.6014 59.4506 34.8145 59.5375 34.9266C59.6245 35.0163 59.7115 35.2069 59.7985 35.4985C59.6897 35.7227 59.6028 35.9582 59.5375 36.2049C59.494 36.4292 59.3636 36.5973 59.1461 36.7095C59.1244 36.8665 59.1679 36.9562 59.2766 36.9786C59.3853 36.9786 59.4506 37.0347 59.4723 37.1468C59.494 37.3486 59.4614 37.4944 59.3745 37.5841C59.8963 38.4587 60.3638 39.3894 60.7769 40.3761C61.1901 41.3405 61.6576 42.2599 62.1794 43.1346ZM58.1024 46.3303C58.1894 46.0836 58.2981 45.8818 58.4286 45.7248C58.5808 45.5678 58.6678 45.3323 58.6895 45.0183C58.5808 44.8389 58.5156 44.7044 58.4938 44.6147C58.4721 44.5025 58.4612 44.3344 58.4612 44.1101C57.9828 43.4149 57.5697 42.6748 57.2218 41.8899C56.8739 41.0826 56.4825 40.3313 56.0476 39.6361C56.0041 39.7258 55.928 39.8155 55.8193 39.9052C55.7106 39.9949 55.591 39.9725 55.4605 39.8379C55.417 40.0173 55.3409 40.1519 55.2322 40.2416C55.1235 40.3089 55.0039 40.3425 54.8734 40.3425C54.743 40.3201 54.6016 40.2864 54.4494 40.2416C54.319 40.1743 54.1994 40.0958 54.0906 40.0061C53.4601 40.5219 52.8295 41.0265 52.1989 41.5199C51.5683 42.0133 51.003 42.5851 50.5029 43.2355C50.4159 43.2803 50.3615 43.3028 50.3398 43.3028C50.318 43.2803 50.2528 43.2915 50.1441 43.3364C49.9701 43.7625 49.7527 44.1549 49.4918 44.5138C49.2526 44.8502 49.0134 45.1978 48.7742 45.5566C48.535 45.9154 48.3285 46.2966 48.1545 46.7003C47.9806 47.104 47.8827 47.5749 47.861 48.1131C48.2306 48.4271 48.6655 48.6177 49.1656 48.685C49.6657 48.7523 50.1767 48.7635 50.6986 48.7187C51.2422 48.6738 51.764 48.6065 52.2641 48.5168C52.786 48.4047 53.2644 48.3486 53.6992 48.3486C54.6125 48.1244 55.3953 47.8328 56.0476 47.474C56.6999 47.0928 57.3849 46.7115 58.1024 46.3303Z" fill="black"></path><path d="M70.8553 47.104C70.6596 47.1488 70.5183 47.2722 70.4313 47.474C70.3443 47.6534 70.2574 47.844 70.1704 48.0459C70.1052 48.2477 70.0291 48.4383 69.9421 48.6177C69.8768 48.7747 69.7681 48.8532 69.6159 48.8532C69.5942 49.0326 69.5289 49.1896 69.4202 49.3242C69.3332 49.4587 69.2463 49.6045 69.1593 49.7615C69.0723 49.896 69.0071 50.053 68.9636 50.2324C68.9201 50.3894 68.9419 50.58 69.0288 50.8043C68.8549 50.9388 68.7462 51.1295 68.7027 51.3761C68.6592 51.6228 68.6048 51.8583 68.5396 52.0826C68.4961 52.3068 68.4091 52.4975 68.2787 52.6544C68.1482 52.8114 67.909 52.8787 67.5611 52.8563C67.4959 52.946 67.485 53.002 67.5285 53.0245C67.572 53.0469 67.6046 53.1254 67.6263 53.2599C67.3872 53.2151 67.2023 53.2263 67.0719 53.2936C66.9631 53.3833 66.8218 53.4393 66.6479 53.4618C66.2347 53.3272 65.8868 53.0917 65.6041 52.7554C65.3432 52.419 65.104 52.0489 64.8866 51.6453C64.6909 51.2192 64.5061 50.7931 64.3321 50.367C64.1799 49.9409 64.0277 49.5708 63.8755 49.2569C63.9407 49.0102 63.9516 48.7747 63.9081 48.5505C63.8646 48.3038 63.7885 48.1019 63.6798 47.945C64.7452 45.6126 65.9086 43.1233 67.1697 40.4771C68.4309 37.8308 69.6268 35.2181 70.7575 32.6391C71.2576 32.841 71.7468 33.0765 72.2252 33.3456C72.7253 33.5923 73.1711 33.8838 73.5625 34.2202C73.9756 34.5566 74.3235 34.949 74.6062 35.3976C74.8889 35.8236 75.0737 36.3058 75.1607 36.844C75.1172 36.9786 75.0628 37.0347 74.9976 37.0122C74.9541 36.9674 74.9106 36.9786 74.8671 37.0459C74.9541 37.158 74.9976 37.2365 74.9976 37.2813C75.0193 37.3262 75.0193 37.371 74.9976 37.4159C74.9976 37.4608 74.9976 37.528 74.9976 37.6177C74.9976 37.685 75.0302 37.7859 75.0954 37.9205C75.0085 37.8981 74.9432 37.9093 74.8997 37.9541C74.878 37.999 74.8128 37.999 74.704 37.9541C74.791 38.2008 74.8128 38.4027 74.7693 38.5596C74.7475 38.7166 74.704 38.8624 74.6388 38.9969C74.5736 39.1091 74.5192 39.2436 74.4757 39.4006C74.4322 39.5352 74.4431 39.7146 74.5083 39.9388C74.4431 39.9388 74.3887 39.9613 74.3453 40.0061C74.3235 40.0285 74.3018 40.0622 74.28 40.107C74.2583 40.1295 74.2257 40.1631 74.1822 40.208C74.1604 40.2304 74.1169 40.2304 74.0517 40.208C74.1169 40.7013 74.1387 41.1947 74.1169 41.6881C74.0952 42.1814 74.0735 42.686 74.0517 43.2018C74.0517 43.6952 74.0626 44.2222 74.0843 44.7829C74.1061 45.3211 74.1822 45.8818 74.3126 46.4648C75.0954 45.9939 75.7151 45.3884 76.1718 44.6483C76.6501 43.9083 77.0307 43.0785 77.3133 42.159C77.6177 41.2396 77.8461 40.2528 77.9983 39.1988C78.1505 38.1448 78.3136 37.0683 78.4875 35.9694C78.6832 35.7676 78.8354 35.5209 78.9441 35.2294C79.0529 34.9378 79.1507 34.6351 79.2377 34.3211C79.3247 33.9847 79.4116 33.6595 79.4986 33.3456C79.5856 33.0092 79.6943 32.7064 79.8248 32.4373C80.1509 32.4822 80.4227 32.5943 80.6402 32.7737C80.8794 32.9307 81.0968 33.1101 81.2925 33.3119C81.4882 33.4913 81.6948 33.6707 81.9122 33.8502C82.1296 34.0071 82.4014 34.1081 82.7276 34.1529C82.9885 34.5341 83.2277 34.9042 83.4452 35.263C83.6626 35.6218 83.8039 36.0031 83.8692 36.4067C83.7604 36.5861 83.6735 36.788 83.6082 37.0122C83.5648 37.2365 83.5104 37.4608 83.4452 37.685C83.3799 37.9093 83.2929 38.1223 83.1842 38.3242C83.0755 38.5036 82.9233 38.6606 82.7276 38.7951C82.6624 39.3782 82.5754 39.9164 82.4667 40.4098C82.3797 40.8807 82.2818 41.3517 82.1731 41.8226C82.0862 42.2936 82.01 42.787 81.9448 43.3028C81.8796 43.7961 81.8578 44.3456 81.8796 44.9511C81.7056 45.4669 81.5208 46.0163 81.3251 46.5994C81.1294 47.1825 80.9772 47.7095 80.8685 48.1804C80.5206 48.472 80.2488 48.8196 80.0531 49.2232C79.8574 49.6269 79.6508 50.0306 79.4334 50.4343C79.3464 50.524 79.292 50.5464 79.2703 50.5015C79.2485 50.4567 79.1724 50.423 79.042 50.4006C79.0637 50.4903 79.0637 50.5576 79.042 50.6024C79.0202 50.6473 78.9876 50.6922 78.9441 50.737C78.9224 50.7594 78.9006 50.8043 78.8789 50.8716C78.8789 50.9388 78.9006 51.0285 78.9441 51.1407C78.6397 51.2752 78.3679 51.4659 78.1287 51.7125C77.8895 51.9592 77.6286 52.1835 77.3459 52.3853C77.085 52.5872 76.7589 52.7217 76.3675 52.789C75.9978 52.8563 75.5086 52.7778 74.8997 52.5535C74.0082 51.8807 73.2146 51.107 72.5188 50.2324C71.8447 49.3578 71.2902 48.315 70.8553 47.104Z" fill="black"></path><path d="M101.58 37.0459C101.036 37.0459 100.449 37.0907 99.8185 37.1804C99.1879 37.2477 98.5682 37.3262 97.9593 37.4159C97.5245 37.4832 97.1004 37.5392 96.6873 37.5841C96.2959 37.6289 95.9371 37.6626 95.611 37.685C95.4588 38.1784 95.3066 38.6157 95.1543 38.9969C95.0021 39.3782 94.8391 39.7482 94.6651 40.107C94.4912 40.4883 94.3281 40.8807 94.1759 41.2844C94.0454 41.6656 93.9149 42.0805 93.7845 42.5291C93.567 42.8879 93.3822 43.2243 93.23 43.5382C93.0995 43.8298 92.9908 44.1662 92.9038 44.5474C92.6429 44.8838 92.4472 45.2426 92.3167 45.6239C92.1863 45.9827 92.0884 46.2966 92.0232 46.5657L91.8927 46.9694C91.7623 47.104 91.6862 47.2161 91.6644 47.3058C91.6427 47.3731 91.5883 47.4404 91.5013 47.5076C91.4796 47.7543 91.4035 48.001 91.273 48.2477C91.2295 48.3598 91.1969 48.472 91.1752 48.5841C91.1534 48.6738 91.1426 48.7411 91.1426 48.7859C91.1426 49.0102 91.0882 49.156 90.9795 49.2232C91.0012 49.3354 91.0012 49.4587 90.9795 49.5933C90.9577 49.7054 90.936 49.8175 90.9143 49.9297C90.849 50.1988 90.8273 50.4118 90.849 50.5688C90.9143 50.6585 90.9686 50.737 91.0121 50.8043C91.0773 50.8716 91.1208 50.9613 91.1426 51.0734C91.273 51.1631 91.3709 51.2192 91.4361 51.2416C91.5231 51.3089 91.6536 51.3874 91.8275 51.4771L92.121 51.8135C92.2298 52.4638 92.1319 52.9796 91.8275 53.3609C91.5013 53.787 90.9469 54 90.1641 54H89.7727C89.664 53.8879 89.5987 53.7982 89.577 53.7309C89.403 53.6636 89.2617 53.6075 89.153 53.5627C89.0443 53.5178 88.9464 53.4281 88.8594 53.2936C88.5768 53.159 88.3484 53.0469 88.1745 52.9572L87.881 52.789C87.881 52.5423 87.881 52.4077 87.881 52.3853C87.7287 52.1835 87.6092 51.9592 87.5222 51.7125C87.4569 51.4659 87.4026 51.2192 87.3591 50.9725C87.3156 50.7706 87.2612 50.58 87.196 50.4006C87.1525 50.2212 87.0873 50.0642 87.0003 49.9297C86.9568 48.6289 87.0764 47.5301 87.3591 46.633C87.6418 45.736 87.9353 44.8726 88.2397 44.0428C88.4137 43.5943 88.5876 43.1458 88.7616 42.6972C88.9355 42.2263 89.0877 41.7441 89.2182 41.2508L89.5118 40.9144C89.664 40.5556 89.7836 40.264 89.8705 40.0398C89.9793 39.7931 90.088 39.5464 90.1967 39.2997C90.2619 39.1427 90.3163 38.9969 90.3598 38.8624C90.425 38.7054 90.4794 38.5708 90.5229 38.4587C90.3924 38.4587 90.2728 38.4699 90.1641 38.4924C90.0554 38.4924 89.9466 38.5036 89.8379 38.526C89.7075 38.5484 89.5879 38.5708 89.4791 38.5933C89.3704 38.5933 89.2617 38.5933 89.153 38.5933C89.0008 38.5933 88.8921 38.5821 88.8268 38.5596C88.5876 38.6718 88.3267 38.7278 88.044 38.7278H87.7179C87.6526 38.7278 87.5874 38.7278 87.5222 38.7278C87.4787 38.7054 87.4352 38.6942 87.3917 38.6942C87.1743 38.6942 87.0003 38.7278 86.8699 38.7951C86.6089 38.7951 86.3589 38.7951 86.1197 38.7951H85.7935C85.75 38.7951 85.6957 38.8063 85.6304 38.8287C85.5652 38.8287 85.5108 38.8287 85.4674 38.8287C85.3151 38.8287 85.1521 38.8175 84.9781 38.7951C84.8042 38.7503 84.6193 38.6718 84.4236 38.5596C84.1627 38.2008 83.9888 38.0102 83.9018 37.9878L83.6082 37.5841C83.5865 37.4495 83.5539 37.3262 83.5104 37.2141C83.4669 37.0795 83.4234 36.9337 83.3799 36.7768C83.2929 36.5525 83.206 36.317 83.119 36.0703C83.0538 35.8012 83.0211 35.4873 83.0211 35.1284C83.0429 34.949 83.0864 34.8145 83.1516 34.7248C83.2168 34.6351 83.2712 34.5566 83.3147 34.4893L83.4125 33.9847L83.8366 34.0183H84.7498C85.4456 34.0183 86.1523 33.9959 86.8699 33.9511C87.5874 33.8838 88.3267 33.8165 89.0877 33.7492C89.5226 33.7044 89.9575 33.6595 90.3924 33.6147C90.849 33.5698 91.3165 33.525 91.7949 33.4801C91.8819 33.2783 91.9688 33.0877 92.0558 32.9083L92.382 32.7401C92.7734 32.7176 93.0452 32.7737 93.1974 32.9083C93.3713 33.0204 93.5127 33.1325 93.6214 33.2446C94.0998 33.1998 94.5781 33.1549 95.0565 33.1101C95.5566 33.0428 96.0567 32.9643 96.5568 32.8746C97.2961 32.7625 98.0354 32.6616 98.7747 32.5719C99.5358 32.4822 100.264 32.4373 100.96 32.4373C101.264 32.4373 101.558 32.4485 101.841 32.4709C102.123 32.4934 102.384 32.527 102.623 32.5719L102.95 32.8073C103.015 32.9419 103.102 33.0652 103.211 33.1774C103.341 33.2895 103.471 33.4016 103.602 33.5138C103.863 33.7604 104.124 34.052 104.385 34.3884C104.646 34.7248 104.743 35.2181 104.678 35.8685C104.504 36.1376 104.374 36.2946 104.287 36.3394L103.993 36.7431L103.667 36.7095C103.537 36.7095 103.417 36.7319 103.308 36.7768C103.2 36.7992 103.091 36.8328 102.982 36.8777C102.895 36.9225 102.808 36.9674 102.721 37.0122C102.634 37.0347 102.536 37.0571 102.428 37.0795C102.232 37.0795 102.069 37.0795 101.939 37.0795C101.83 37.0571 101.71 37.0459 101.58 37.0459Z" fill="black"></path><path d="M117.235 34.2875C117.257 34.4444 117.257 34.5678 117.235 34.6575C117.235 34.7248 117.225 34.792 117.203 34.8593C117.203 34.9266 117.203 35.0051 117.203 35.0948C117.203 35.1621 117.225 35.2742 117.268 35.4312C116.811 36.1937 116.279 36.7207 115.67 37.0122C115.083 37.2813 114.441 37.4832 113.746 37.6177C113.05 37.7299 112.332 37.8532 111.593 37.9878C110.875 38.1223 110.158 38.4139 109.44 38.8624C109.158 38.7503 108.897 38.7503 108.657 38.8624C108.44 38.9745 108.114 39.0082 107.679 38.9633C107.548 39.0979 107.385 39.1988 107.19 39.2661C106.994 39.3109 106.798 39.367 106.603 39.4343C106.69 39.6361 106.722 39.8491 106.7 40.0734C106.7 40.2752 106.733 40.4434 106.798 40.578C107.559 40.6453 108.396 40.634 109.31 40.5443C110.245 40.4546 111.158 40.3986 112.05 40.3761C112.071 40.4883 112.06 40.5668 112.017 40.6116C111.973 40.634 111.963 40.6901 111.984 40.7798C112.136 40.8919 112.289 41.0377 112.441 41.2171C112.593 41.3741 112.745 41.5311 112.898 41.6881C113.05 41.8451 113.202 41.9796 113.354 42.0917C113.528 42.1814 113.724 42.2151 113.941 42.1927C114.028 42.3721 114.083 42.5739 114.104 42.7982C114.148 43 114.126 43.213 114.039 43.4373C113.691 43.684 113.343 43.9419 112.995 44.211C112.647 44.4577 112.278 44.682 111.886 44.8838C111.517 45.0856 111.115 45.2538 110.68 45.3884C110.266 45.5005 109.799 45.5454 109.277 45.5229C109.168 45.5229 109.081 45.5229 109.016 45.5229C108.973 45.5229 108.907 45.4893 108.821 45.422C108.647 45.5341 108.396 45.5678 108.07 45.5229C107.766 45.4781 107.527 45.5117 107.353 45.6239C107.114 45.5117 106.82 45.4669 106.472 45.4893C106.146 45.4893 105.852 45.4444 105.592 45.3547C105.244 45.8257 104.928 46.3303 104.646 46.8685C104.363 47.4067 104.113 47.9786 103.895 48.5841C104.635 48.6962 105.244 48.7411 105.722 48.7187C106.222 48.6962 106.69 48.6626 107.124 48.6177C107.559 48.5505 108.005 48.4944 108.462 48.4495C108.918 48.3823 109.495 48.3598 110.19 48.3823C110.625 48.1356 111.136 47.9786 111.723 47.9113C112.332 47.8216 112.887 47.6871 113.387 47.5076C113.561 47.5749 113.713 47.6983 113.843 47.8777C113.974 48.0347 114.093 48.1916 114.202 48.3486C114.333 48.4832 114.463 48.6065 114.594 48.7187C114.724 48.8308 114.887 48.8756 115.083 48.8532C115.17 48.9429 115.224 49.055 115.246 49.1896C115.289 49.3017 115.322 49.4139 115.344 49.526C115.365 49.6381 115.398 49.739 115.442 49.8287C115.507 49.896 115.605 49.9185 115.735 49.896C115.409 50.6361 115.028 51.208 114.594 51.6116C114.18 51.9929 113.702 52.2844 113.158 52.4862C112.615 52.6881 112.006 52.8451 111.332 52.9572C110.68 53.0693 109.951 53.2039 109.147 53.3609C108.951 53.4057 108.788 53.3945 108.657 53.3272C108.527 53.2824 108.375 53.2599 108.201 53.2599C107.701 53.3721 107.103 53.473 106.407 53.5627C105.711 53.6524 105.004 53.686 104.287 53.6636C103.569 53.6412 102.884 53.5403 102.232 53.3609C101.58 53.2039 101.047 52.9123 100.634 52.4862C100.46 52.3293 100.34 52.1498 100.275 51.948C100.232 51.7238 100.09 51.5556 99.8511 51.4434C99.8293 51.1519 99.7858 50.8267 99.7206 50.4679C99.6554 50.1091 99.5901 49.739 99.5249 49.3578C99.4597 48.9541 99.4053 48.5617 99.3618 48.1804C99.3401 47.7992 99.3618 47.4516 99.4271 47.1376C99.4923 46.8012 99.6228 46.4985 99.8185 46.2294C100.036 45.9602 100.112 45.6687 100.047 45.3547C100.155 45.3323 100.221 45.2762 100.242 45.1865C100.264 45.0744 100.351 45.0296 100.503 45.052C100.634 44.6483 100.775 44.2671 100.927 43.9083C101.08 43.5494 101.232 43.2018 101.384 42.8654C101.558 42.5291 101.721 42.1927 101.873 41.8563C102.047 41.4975 102.21 41.105 102.363 40.6789C102.058 40.3874 101.83 40.0734 101.678 39.737C101.547 39.3782 101.449 39.0306 101.384 38.6942C101.319 38.3354 101.264 37.9766 101.221 37.6177C101.177 37.2365 101.101 36.8552 100.993 36.474C101.21 36.1376 101.471 35.8685 101.775 35.6667C102.102 35.4424 102.449 35.263 102.819 35.1284C103.189 34.9939 103.591 34.8818 104.026 34.792C104.461 34.7023 104.917 34.6014 105.396 34.4893C106.266 34.1978 107.037 33.9735 107.712 33.8165C108.407 33.6595 109.081 33.5362 109.734 33.4465C110.408 33.3344 111.104 33.2334 111.821 33.1437C112.539 33.054 113.354 32.9195 114.267 32.7401C114.463 32.9419 114.648 33.0428 114.822 33.0428C114.909 32.841 115.007 32.7849 115.115 32.8746C115.246 32.9419 115.3 32.8746 115.279 32.6728C115.496 33.054 115.768 33.3792 116.094 33.6483C116.442 33.895 116.822 34.1081 117.235 34.2875Z" fill="black"></path><path d="M139.023 52.6208C138.806 52.7329 138.599 52.8338 138.403 52.9235C138.229 53.0133 138.023 53.0581 137.784 53.0581C136.936 52.4077 136.49 51.2752 136.446 49.6606C136.425 48.0459 136.762 45.9939 137.457 43.5046C137.566 43.4373 137.621 43.3028 137.621 43.1009L137.327 42.7645C137.24 42.7645 137.153 42.7757 137.066 42.7982C137.001 42.8206 136.946 42.8991 136.903 43.0336C136.338 43.4597 135.718 43.9083 135.044 44.3792C134.37 44.8277 133.663 45.2538 132.924 45.6575C132.206 46.0387 131.467 46.3527 130.706 46.5994C129.967 46.8461 129.238 46.9694 128.521 46.9694C126.694 46.9694 125.324 46.0163 124.411 44.1101L124.15 43.6055L123.889 44.0428C123.824 44.1325 123.726 44.3231 123.596 44.6147C123.465 44.8838 123.335 45.1978 123.204 45.5566C123.074 45.9154 122.954 46.2854 122.845 46.6667C122.758 47.0255 122.726 47.3394 122.748 47.6086C122.552 47.8104 122.345 48.0459 122.128 48.315C121.91 48.5841 121.747 48.8868 121.639 49.2232C121.595 49.4027 121.617 49.5708 121.704 49.7278C121.66 49.9297 121.563 50.0866 121.41 50.1988C121.323 50.3109 121.226 50.423 121.117 50.5352C121.03 50.6249 120.954 50.7258 120.888 50.8379C120.845 50.9501 120.812 51.0622 120.791 51.1743C120.791 51.2864 120.78 51.3986 120.758 51.5107C120.758 51.6677 120.736 51.8135 120.693 51.948C120.323 52.7329 120.03 53.2375 119.812 53.4618C119.595 53.7085 119.301 53.8318 118.932 53.8318C118.758 53.8318 118.475 53.7982 118.083 53.7309C117.801 53.4169 117.54 52.9908 117.301 52.4526C117.083 51.8919 116.909 51.2977 116.779 50.6697C116.67 50.0418 116.616 49.4139 116.616 48.7859C116.638 48.1356 116.746 47.5749 116.942 47.104C116.942 47.0815 117.029 46.8573 117.203 46.4312C117.377 46.0051 117.594 45.4557 117.855 44.7829C118.138 44.1101 118.453 43.37 118.801 42.5627C119.149 41.7329 119.497 40.9368 119.845 40.1743C120.193 39.3894 120.519 38.6718 120.823 38.0214C121.149 37.371 121.421 36.8777 121.639 36.5413C121.813 36.2722 121.965 36.0255 122.095 35.8012C122.247 35.5545 122.389 35.3191 122.519 35.0948C122.911 34.3996 123.28 33.8277 123.628 33.3792C123.998 32.9083 124.531 32.5382 125.226 32.2691C125.705 32.4709 126.053 32.7064 126.27 32.9755L126.335 33.3456C126.422 33.5698 126.553 33.682 126.727 33.682C126.966 33.7492 127.162 33.8165 127.314 33.8838C127.488 33.9286 127.673 33.9735 127.868 34.0183C128.021 34.1978 128.162 34.4108 128.292 34.6575C128.466 34.9266 128.629 35.1957 128.782 35.4648C128.956 35.7115 129.086 35.9694 129.173 36.2385C129.282 36.4852 129.336 36.7431 129.336 37.0122C129.358 37.2813 129.314 37.5617 129.206 37.8532L129.238 38.1896C129.347 38.3914 129.369 38.6718 129.303 39.0306C129.282 39.1876 129.271 39.3558 129.271 39.5352C129.271 39.6922 129.293 39.8716 129.336 40.0734C129.727 40.3874 130.075 40.5443 130.38 40.5443C130.728 40.5443 131.043 40.4659 131.326 40.3089C131.63 40.1295 131.913 39.9501 132.174 39.7706C132.348 39.6361 132.522 39.524 132.696 39.4343C132.869 39.3221 133.043 39.2548 133.217 39.2324C133.609 38.8512 133.957 38.5148 134.261 38.2232C134.587 37.9317 134.924 37.6402 135.272 37.3486C135.925 36.8104 136.555 36.2273 137.164 35.5994C137.773 34.9715 138.262 34.1865 138.632 33.2446C138.849 33.1101 139.077 33.0428 139.317 33.0428C139.556 33.0428 139.806 33.0989 140.067 33.211C140.328 33.3231 140.578 33.4353 140.817 33.5474C140.882 33.5923 140.937 33.6259 140.98 33.6483C141.045 33.6707 141.1 33.6932 141.143 33.7156C141.143 33.9399 141.23 34.1305 141.404 34.2875C141.491 34.3547 141.545 34.3996 141.567 34.422C141.589 34.4444 141.621 34.4669 141.665 34.4893C141.991 34.6687 142.198 34.8481 142.285 35.0275C142.437 35.5433 142.709 35.9358 143.1 36.2049C143.057 36.4292 143.057 36.6422 143.1 36.844C143.165 37.0234 143.241 37.2141 143.328 37.4159C143.35 37.4832 143.372 37.5505 143.394 37.6177C143.415 37.685 143.448 37.7635 143.491 37.8532L142.872 37.7859L142.97 38.4251C143.013 38.739 142.98 39.0866 142.872 39.4679C142.785 39.8491 142.676 40.1519 142.546 40.3761C142.567 40.9592 142.578 41.419 142.578 41.7554C142.6 42.0693 142.589 42.3721 142.546 42.6636C142.502 42.9327 142.437 43.1906 142.35 43.4373C142.285 43.684 142.187 43.9531 142.056 44.2446C142.143 45.6799 141.98 46.9918 141.567 48.1804C141.176 49.3466 140.763 50.4455 140.328 51.4771C140.284 51.5892 140.23 51.7013 140.165 51.8135C140.121 51.9256 140.078 52.0377 140.034 52.1498C139.838 52.2171 139.664 52.2956 139.512 52.3853C139.36 52.4526 139.197 52.5311 139.023 52.6208Z" fill="black"></path><path d="M155.951 32.37C156.864 32.4822 157.679 32.6728 158.397 32.9419C159.115 33.211 159.723 33.5698 160.224 34.0183C160.571 34.579 160.898 35.1845 161.202 35.8349C161.528 36.4852 161.767 37.1692 161.92 37.8869C162.094 38.5821 162.17 39.2997 162.148 40.0398C162.148 40.7798 161.996 41.5311 161.691 42.2936C161.061 43.1009 160.289 43.7625 159.376 44.2783C158.484 44.7717 157.516 45.1753 156.473 45.4893C155.429 45.8033 154.342 46.0724 153.211 46.2966C152.102 46.5209 151.015 46.7452 149.949 46.9694C149.971 47.4852 149.971 48.0347 149.949 48.6177C149.949 49.1784 149.895 49.7503 149.786 50.3333C149.699 50.894 149.558 51.4434 149.362 51.9817C149.167 52.5199 148.906 53.0133 148.58 53.4618C148.21 53.4618 147.829 53.5066 147.438 53.5963C147.047 53.7085 146.699 53.7982 146.394 53.8654C146.242 53.7757 146.101 53.686 145.97 53.5963C145.862 53.5291 145.698 53.4842 145.481 53.4618C145.525 53.2375 145.47 53.0133 145.318 52.789C145.166 52.5423 145.014 52.2956 144.861 52.0489C144.709 51.8022 144.6 51.5668 144.535 51.3425C144.492 51.1182 144.6 50.9052 144.861 50.7034C144.709 50.5464 144.633 50.3445 144.633 50.0979C144.785 49.8287 144.916 49.4587 145.024 48.9878C145.155 48.5168 145.253 48.0571 145.318 47.6086C145.405 47.1376 145.427 46.7115 145.383 46.3303C145.34 45.949 145.122 45.6687 144.731 45.4893C144.753 45.4444 144.796 45.422 144.861 45.422C144.927 45.422 144.992 45.4108 145.057 45.3884C144.883 45.2538 144.774 45.0632 144.731 44.8165C144.709 44.5698 144.633 44.3568 144.503 44.1774C144.546 44.0652 144.579 43.9643 144.6 43.8746C144.622 43.7849 144.698 43.7513 144.829 43.7737C144.763 43.37 144.763 42.9888 144.829 42.63C144.916 42.2712 145.035 41.9348 145.187 41.6208C145.34 41.2844 145.525 40.9592 145.742 40.6453C145.959 40.3313 146.166 40.0173 146.362 39.7034C146.514 39.6809 146.601 39.7034 146.623 39.7706C146.666 39.8379 146.742 39.8267 146.851 39.737C147.134 39.5127 147.329 39.2773 147.438 39.0306C147.547 38.7839 147.601 38.5036 147.601 38.1896C147.753 37.7187 147.938 37.2477 148.156 36.7768C148.373 36.2834 148.612 35.8349 148.873 35.4312C149.134 35.0275 149.417 34.6687 149.721 34.3547C150.047 34.0408 150.384 33.8053 150.732 33.6483C150.993 33.4241 151.319 33.2222 151.711 33.0428C152.102 32.841 152.526 32.6952 152.983 32.6055C153.439 32.4934 153.896 32.4373 154.353 32.4373C154.831 32.4149 155.266 32.4597 155.657 32.5719C155.766 32.6167 155.82 32.5943 155.82 32.5046C155.842 32.4149 155.886 32.37 155.951 32.37ZM154.614 40.4098C155.157 40.1631 155.733 39.9725 156.342 39.8379C156.973 39.6809 157.495 39.4006 157.908 38.9969C157.647 38.7503 157.266 38.5372 156.766 38.3578C156.266 38.156 155.723 38.0326 155.135 37.9878C154.548 37.9429 153.95 37.999 153.342 38.156C152.754 38.2905 152.243 38.5596 151.809 38.9633C151.678 39.367 151.569 39.6922 151.482 39.9388C151.395 40.1631 151.276 40.4434 151.124 40.7798C151.167 40.8919 151.232 40.9817 151.319 41.0489C151.428 41.0938 151.504 41.1723 151.548 41.2844C152.048 41.0153 152.548 40.8695 153.048 40.8471C153.57 40.8022 154.092 40.6565 154.614 40.4098Z" fill="black"></path><path d="M180.185 43.1346C180.163 43.4037 180.185 43.6616 180.25 43.9083C180.315 44.1549 180.391 44.4016 180.478 44.6483C180.587 44.8726 180.685 45.1081 180.772 45.3547C180.859 45.6014 180.924 45.8481 180.967 46.0948C181.011 46.4088 181.011 46.7564 180.967 47.1376C180.924 47.4964 180.848 47.8552 180.739 48.2141C180.63 48.5505 180.489 48.8644 180.315 49.156C180.141 49.4251 179.935 49.6269 179.695 49.7615C179.391 50.1651 179.021 50.4791 178.586 50.7034C178.152 50.9276 177.749 51.1967 177.38 51.5107C177.14 51.6677 176.869 51.7798 176.564 51.8471C176.282 51.9144 175.988 51.9817 175.684 52.0489C175.444 52.1835 175.162 52.3293 174.836 52.4862C174.509 52.6208 174.172 52.7554 173.824 52.8899C173.477 53.002 173.129 53.0917 172.781 53.159C172.433 53.2039 172.128 53.2151 171.867 53.1927C171.215 53.4393 170.574 53.5963 169.943 53.6636C169.334 53.7533 168.617 53.7085 167.79 53.5291C167.008 53.6412 166.279 53.6075 165.605 53.4281C164.953 53.2487 164.366 52.9684 163.844 52.5872C163.344 52.1835 162.898 51.7125 162.507 51.1743C162.137 50.6137 161.833 50.0306 161.593 49.4251C161.419 48.1468 161.463 46.9918 161.724 45.9602C161.985 44.9062 162.354 43.9419 162.833 43.0673C163.333 42.1702 163.898 41.3517 164.529 40.6116C165.159 39.8491 165.768 39.1091 166.355 38.3914C166.486 38.4363 166.584 38.4363 166.649 38.3914C166.736 38.3242 166.812 38.2457 166.877 38.156C166.942 38.0438 167.008 37.9429 167.073 37.8532C167.16 37.7635 167.258 37.7074 167.366 37.685C167.519 37.3486 167.736 37.1019 168.019 36.945C168.323 36.7655 168.562 36.5189 168.736 36.2049C168.932 36.16 169.095 36.0928 169.226 36.0031C169.356 35.9134 169.476 35.8124 169.584 35.7003C169.715 35.5882 169.845 35.4873 169.976 35.3976C170.106 35.2854 170.258 35.2069 170.432 35.1621V34.792C170.824 34.6126 171.106 34.4108 171.28 34.1865C171.476 33.9399 171.704 33.6483 171.965 33.3119C172.161 33.2895 172.313 33.2783 172.422 33.2783C172.552 33.2783 172.737 33.2559 172.976 33.211C173.15 32.897 173.303 32.6616 173.433 32.5046C173.585 32.3476 173.803 32.1794 174.085 32C174.346 32.1346 174.629 32.2243 174.933 32.2691C175.26 32.314 175.542 32.4597 175.781 32.7064C175.803 32.9307 175.868 33.1101 175.977 33.2446C176.086 33.3568 176.205 33.4689 176.336 33.581C176.466 33.6707 176.586 33.7717 176.695 33.8838C176.825 33.9959 176.912 34.1529 176.956 34.3547C177.043 34.3772 177.097 34.366 177.119 34.3211C177.162 34.2762 177.227 34.265 177.314 34.2875C177.38 34.6014 177.456 34.8145 177.543 34.9266C177.63 35.0163 177.717 35.2069 177.804 35.4985C177.695 35.7227 177.608 35.9582 177.543 36.2049C177.499 36.4292 177.369 36.5973 177.151 36.7095C177.13 36.8665 177.173 36.9562 177.282 36.9786C177.39 36.9786 177.456 37.0347 177.477 37.1468C177.499 37.3486 177.467 37.4944 177.38 37.5841C177.901 38.4587 178.369 39.3894 178.782 40.3761C179.195 41.3405 179.663 42.2599 180.185 43.1346ZM176.108 46.3303C176.195 46.0836 176.303 45.8818 176.434 45.7248C176.586 45.5678 176.673 45.3323 176.695 45.0183C176.586 44.8389 176.521 44.7044 176.499 44.6147C176.477 44.5025 176.466 44.3344 176.466 44.1101C175.988 43.4149 175.575 42.6748 175.227 41.8899C174.879 41.0826 174.488 40.3313 174.053 39.6361C174.009 39.7258 173.933 39.8155 173.824 39.9052C173.716 39.9949 173.596 39.9725 173.466 39.8379C173.422 40.0173 173.346 40.1519 173.237 40.2416C173.129 40.3089 173.009 40.3425 172.879 40.3425C172.748 40.3201 172.607 40.2864 172.455 40.2416C172.324 40.1743 172.205 40.0958 172.096 40.0061C171.465 40.5219 170.835 41.0265 170.204 41.5199C169.573 42.0133 169.008 42.5851 168.508 43.2355C168.421 43.2803 168.367 43.3028 168.345 43.3028C168.323 43.2803 168.258 43.2915 168.149 43.3364C167.975 43.7625 167.758 44.1549 167.497 44.5138C167.258 44.8502 167.019 45.1978 166.779 45.5566C166.54 45.9154 166.334 46.2966 166.16 46.7003C165.986 47.104 165.888 47.5749 165.866 48.1131C166.236 48.4271 166.671 48.6177 167.171 48.685C167.671 48.7523 168.182 48.7635 168.704 48.7187C169.247 48.6738 169.769 48.6065 170.269 48.5168C170.791 48.4047 171.27 48.3486 171.704 48.3486C172.618 48.1244 173.4 47.8328 174.053 47.474C174.705 47.0928 175.39 46.7115 176.108 46.3303Z" fill="black"></path><path d="M57.8404 79.8472C57.7318 79.8472 57.648 79.8167 57.5888 79.7556C57.5296 79.6843 57.5 79.5977 57.5 79.4958V69.5194C57.5 69.4074 57.5296 69.3208 57.5888 69.2597C57.648 69.1884 57.7318 69.1528 57.8404 69.1528H61.1997C62.2159 69.1528 63.0347 69.3106 63.6563 69.6264C64.2778 69.9421 64.7317 70.4106 65.0178 71.0319C65.3039 71.6431 65.4519 72.3968 65.4617 73.2931C65.4716 73.7514 65.4765 74.1537 65.4765 74.5C65.4765 74.8463 65.4716 75.2435 65.4617 75.6917C65.442 76.6287 65.2891 77.4079 65.003 78.0292C64.7267 78.6403 64.2828 79.0986 63.6711 79.4042C63.0693 79.6995 62.2701 79.8472 61.2737 79.8472H57.8404ZM58.9503 78.5486H61.1997C61.8804 78.5486 62.4231 78.4519 62.8275 78.2583C63.232 78.0648 63.5231 77.7542 63.7007 77.3264C63.8881 76.8986 63.9868 76.3333 63.9967 75.6306C64.0164 75.325 64.0262 75.0602 64.0262 74.8361C64.0262 74.6019 64.0262 74.3727 64.0262 74.1486C64.0262 73.9144 64.0164 73.6495 63.9967 73.3542C63.9769 72.3662 63.75 71.638 63.3159 71.1694C62.8818 70.6907 62.1517 70.4514 61.1257 70.4514H58.9503V78.5486Z" fill="#717974"></path><path d="M69.6565 80C69.1632 80 68.7143 79.8981 68.3098 79.6944C67.9053 79.4907 67.5797 79.2157 67.3331 78.8694C67.0864 78.5231 66.9631 78.131 66.9631 77.6931C66.9631 76.9903 67.2393 76.4301 67.7918 76.0125C68.3443 75.5949 69.0645 75.3199 69.9525 75.1875L72.1575 74.8667V74.4236C72.1575 73.9347 72.0193 73.5528 71.7431 73.2778C71.4767 73.0028 71.0377 72.8653 70.426 72.8653C69.9821 72.8653 69.6219 72.9569 69.3457 73.1403C69.0793 73.3236 68.8919 73.5579 68.7834 73.8431C68.7242 73.9958 68.6206 74.0722 68.4726 74.0722H67.8066C67.6981 74.0722 67.6143 74.0417 67.5551 73.9806C67.5057 73.9093 67.4811 73.8278 67.4811 73.7361C67.4811 73.5833 67.5353 73.3949 67.6438 73.1708C67.7622 72.9468 67.9398 72.7278 68.1766 72.5139C68.4134 72.3 68.7143 72.1218 69.0793 71.9792C69.4542 71.8264 69.9081 71.75 70.4408 71.75C71.0328 71.75 71.531 71.8315 71.9355 71.9944C72.34 72.1472 72.6557 72.356 72.8826 72.6208C73.1194 72.8856 73.2871 73.1861 73.3858 73.5222C73.4943 73.8583 73.5485 74.1995 73.5485 74.5458V79.4958C73.5485 79.5977 73.514 79.6843 73.445 79.7556C73.3858 79.8167 73.3068 79.8472 73.2082 79.8472H72.5274C72.4189 79.8472 72.3351 79.8167 72.2759 79.7556C72.2167 79.6843 72.1871 79.5977 72.1871 79.4958V78.8389C72.0588 79.0222 71.8862 79.2056 71.6691 79.3889C71.4521 79.562 71.1807 79.7097 70.8552 79.8319C70.5296 79.944 70.13 80 69.6565 80ZM69.9673 78.8542C70.3718 78.8542 70.7417 78.7676 71.0772 78.5944C71.4126 78.4111 71.674 78.131 71.8615 77.7542C72.0588 77.3773 72.1575 76.9037 72.1575 76.3333V75.9056L70.4408 76.1653C69.7403 76.2671 69.2125 76.4403 68.8573 76.6847C68.5022 76.919 68.3246 77.2194 68.3246 77.5861C68.3246 77.8713 68.4035 78.1106 68.5614 78.3042C68.7291 78.4875 68.9363 78.625 69.1829 78.7167C69.4394 78.8083 69.7009 78.8542 69.9673 78.8542Z" fill="#717974"></path><path d="M76.0164 79.8472C75.9177 79.8472 75.8338 79.8167 75.7648 79.7556C75.7056 79.6843 75.676 79.5977 75.676 79.4958V72.2542C75.676 72.1523 75.7056 72.0708 75.7648 72.0097C75.8338 71.9384 75.9177 71.9028 76.0164 71.9028H76.7119C76.8106 71.9028 76.8895 71.9384 76.9487 72.0097C77.0177 72.0708 77.0523 72.1523 77.0523 72.2542V72.9264C77.3088 72.5801 77.6294 72.3 78.0142 72.0861C78.4088 71.862 78.912 71.75 79.5237 71.75C80.1649 71.75 80.7076 71.8977 81.1515 72.1931C81.6053 72.4782 81.9457 72.8806 82.1726 73.4C82.3995 73.9093 82.513 74.5051 82.513 75.1875V79.4958C82.513 79.5977 82.4834 79.6843 82.4242 79.7556C82.365 79.8167 82.2861 79.8472 82.1874 79.8472H81.4475C81.3488 79.8472 81.265 79.8167 81.1959 79.7556C81.1367 79.6843 81.1071 79.5977 81.1071 79.4958V75.2639C81.1071 74.5509 80.9394 73.9958 80.604 73.5986C80.2685 73.1912 79.7752 72.9875 79.1241 72.9875C78.5124 72.9875 78.0191 73.1912 77.6442 73.5986C77.2792 73.9958 77.0967 74.5509 77.0967 75.2639V79.4958C77.0967 79.5977 77.0621 79.6843 76.9931 79.7556C76.9339 79.8167 76.855 79.8472 76.7563 79.8472H76.0164Z" fill="#717974"></path><path d="M87.7584 80C87.0579 80 86.4511 79.8625 85.9381 79.5875C85.4349 79.3023 85.0452 78.9 84.769 78.3806C84.4928 77.8509 84.3448 77.2194 84.325 76.4861C84.3152 76.3333 84.3102 76.1296 84.3102 75.875C84.3102 75.6204 84.3152 75.4167 84.325 75.2639C84.3448 74.5306 84.4928 73.9042 84.769 73.3847C85.0452 72.8551 85.4349 72.4528 85.9381 72.1778C86.4511 71.8926 87.0579 71.75 87.7584 71.75C88.3306 71.75 88.8189 71.8315 89.2234 71.9944C89.6378 72.1574 89.9782 72.3662 90.2445 72.6208C90.5109 72.8755 90.7082 73.1505 90.8365 73.4458C90.9746 73.7412 91.0486 74.0213 91.0585 74.2861C91.0683 74.388 91.0387 74.4694 90.9697 74.5306C90.9006 74.5917 90.8168 74.6222 90.7181 74.6222H90.0078C89.9091 74.6222 89.8351 74.6019 89.7858 74.5611C89.7365 74.5102 89.6871 74.4287 89.6378 74.3167C89.4602 73.8176 89.2185 73.4662 88.9127 73.2625C88.6068 73.0588 88.227 72.9569 87.7732 72.9569C87.1812 72.9569 86.6978 73.1454 86.3229 73.5222C85.9578 73.8991 85.7605 74.5051 85.7309 75.3403C85.7211 75.7069 85.7211 76.0634 85.7309 76.4097C85.7605 77.2551 85.9578 77.8662 86.3229 78.2431C86.6978 78.6097 87.1812 78.7931 87.7732 78.7931C88.227 78.7931 88.6068 78.6912 88.9127 78.4875C89.2185 78.2838 89.4602 77.9324 89.6378 77.4333C89.6871 77.3213 89.7365 77.2449 89.7858 77.2042C89.8351 77.1532 89.9091 77.1278 90.0078 77.1278H90.7181C90.8168 77.1278 90.9006 77.1583 90.9697 77.2194C91.0387 77.2806 91.0683 77.362 91.0585 77.4639C91.0486 77.6778 91.0042 77.8968 90.9253 78.1208C90.8464 78.3449 90.7181 78.5741 90.5405 78.8083C90.3728 79.0324 90.1607 79.2361 89.9042 79.4194C89.6477 79.5926 89.3369 79.7352 88.9719 79.8472C88.6167 79.9491 88.2122 80 87.7584 80Z" fill="#717974"></path><path d="M95.8793 80C94.8631 80 94.0541 79.6792 93.4523 79.0375C92.8505 78.3856 92.52 77.4995 92.4608 76.3792C92.4509 76.2468 92.446 76.0787 92.446 75.875C92.446 75.6611 92.4509 75.488 92.4608 75.3556C92.5002 74.6324 92.663 74.0009 92.9491 73.4611C93.2352 72.9111 93.6249 72.4884 94.1182 72.1931C94.6214 71.8977 95.2084 71.75 95.8793 71.75C96.6291 71.75 97.2556 71.913 97.7587 72.2389C98.2717 72.5648 98.6614 73.0282 98.9278 73.6292C99.1942 74.2301 99.3274 74.9329 99.3274 75.7375V75.9972C99.3274 76.1093 99.2929 76.1958 99.2238 76.2569C99.1646 76.3181 99.0857 76.3486 98.987 76.3486H93.8667C93.8667 76.3588 93.8667 76.3792 93.8667 76.4097C93.8667 76.4403 93.8667 76.4657 93.8667 76.4861C93.8864 76.9037 93.9752 77.2958 94.133 77.6625C94.2909 78.019 94.5178 78.3093 94.8138 78.5333C95.1097 78.7574 95.4649 78.8694 95.8793 78.8694C96.2345 78.8694 96.5304 78.8134 96.7672 78.7014C97.004 78.5894 97.1964 78.4671 97.3444 78.3347C97.4923 78.1921 97.591 78.0852 97.6403 78.0139C97.7291 77.8815 97.7982 77.8051 97.8475 77.7847C97.8968 77.7542 97.9758 77.7389 98.0843 77.7389H98.7946C98.8933 77.7389 98.9722 77.7694 99.0314 77.8306C99.1005 77.8815 99.1301 77.9579 99.1202 78.0597C99.1103 78.2125 99.0314 78.4009 98.8834 78.625C98.7354 78.8389 98.5233 79.0528 98.2471 79.2667C97.9708 79.4806 97.6354 79.6588 97.2408 79.8014C96.8461 79.9338 96.3923 80 95.8793 80ZM93.8667 75.2944H97.9215V75.2486C97.9215 74.7903 97.8376 74.3829 97.6699 74.0264C97.5121 73.6699 97.2802 73.3898 96.9744 73.1861C96.6685 72.9722 96.3035 72.8653 95.8793 72.8653C95.4551 72.8653 95.09 72.9722 94.7842 73.1861C94.4882 73.3898 94.2613 73.6699 94.1034 74.0264C93.9456 74.3829 93.8667 74.7903 93.8667 75.2486V75.2944Z" fill="#717974"></path><path d="M108.246 80C107.388 80 106.668 79.8676 106.086 79.6028C105.504 79.3278 105.055 78.9764 104.739 78.5486C104.433 78.1106 104.27 77.6472 104.251 77.1583C104.251 77.0769 104.28 77.0056 104.34 76.9444C104.409 76.8731 104.488 76.8375 104.576 76.8375H105.331C105.449 76.8375 105.538 76.8681 105.597 76.9292C105.657 76.9903 105.696 77.0616 105.716 77.1431C105.765 77.3875 105.884 77.6319 106.071 77.8764C106.268 78.1106 106.54 78.3093 106.885 78.4722C107.24 78.625 107.694 78.7014 108.246 78.7014C109.095 78.7014 109.716 78.5486 110.111 78.2431C110.516 77.9273 110.718 77.5097 110.718 76.9903C110.718 76.6338 110.609 76.3486 110.392 76.1347C110.185 75.9106 109.864 75.712 109.43 75.5389C108.996 75.3657 108.434 75.1773 107.743 74.9736C107.023 74.7597 106.426 74.5255 105.953 74.2708C105.479 74.0162 105.124 73.7005 104.887 73.3236C104.66 72.9468 104.547 72.4681 104.547 71.8875C104.547 71.3375 104.69 70.8486 104.976 70.4208C105.262 69.9829 105.671 69.6366 106.204 69.3819C106.747 69.1273 107.403 69 108.172 69C108.784 69 109.317 69.0866 109.771 69.2597C110.234 69.4227 110.619 69.6468 110.925 69.9319C111.231 70.2069 111.463 70.5074 111.621 70.8333C111.778 71.1491 111.862 71.4597 111.872 71.7653C111.872 71.8366 111.847 71.9079 111.798 71.9792C111.749 72.0403 111.67 72.0708 111.561 72.0708H110.777C110.708 72.0708 110.634 72.0505 110.555 72.0097C110.486 71.969 110.432 71.8926 110.392 71.7806C110.333 71.363 110.106 71.0116 109.711 70.7264C109.317 70.4412 108.804 70.2986 108.172 70.2986C107.531 70.2986 107.008 70.4259 106.604 70.6806C106.209 70.9352 106.012 71.3324 106.012 71.8722C106.012 72.2185 106.106 72.5088 106.293 72.7431C106.48 72.9671 106.776 73.1657 107.181 73.3389C107.585 73.512 108.113 73.6954 108.764 73.8889C109.554 74.113 110.2 74.3523 110.703 74.6069C111.206 74.8514 111.576 75.162 111.813 75.5389C112.06 75.9056 112.183 76.3792 112.183 76.9597C112.183 77.6014 112.02 78.1514 111.695 78.6097C111.369 79.0579 110.91 79.4042 110.318 79.6486C109.736 79.8829 109.046 80 108.246 80Z" fill="#717974"></path><path d="M117.038 80C116.337 80 115.731 79.8625 115.218 79.5875C114.715 79.3023 114.325 78.9 114.049 78.3806C113.772 77.8509 113.624 77.2194 113.605 76.4861C113.595 76.3333 113.59 76.1296 113.59 75.875C113.59 75.6204 113.595 75.4167 113.605 75.2639C113.624 74.5306 113.772 73.9042 114.049 73.3847C114.325 72.8551 114.715 72.4528 115.218 72.1778C115.731 71.8926 116.337 71.75 117.038 71.75C117.61 71.75 118.098 71.8315 118.503 71.9944C118.917 72.1574 119.258 72.3662 119.524 72.6208C119.79 72.8755 119.988 73.1505 120.116 73.4458C120.254 73.7412 120.328 74.0213 120.338 74.2861C120.348 74.388 120.318 74.4694 120.249 74.5306C120.18 74.5917 120.096 74.6222 119.998 74.6222H119.287C119.189 74.6222 119.115 74.6019 119.065 74.5611C119.016 74.5102 118.967 74.4287 118.917 74.3167C118.74 73.8176 118.498 73.4662 118.192 73.2625C117.886 73.0588 117.507 72.9569 117.053 72.9569C116.461 72.9569 115.977 73.1454 115.602 73.5222C115.237 73.8991 115.04 74.5051 115.01 75.3403C115.001 75.7069 115.001 76.0634 115.01 76.4097C115.04 77.2551 115.237 77.8662 115.602 78.2431C115.977 78.6097 116.461 78.7931 117.053 78.7931C117.507 78.7931 117.886 78.6912 118.192 78.4875C118.498 78.2838 118.74 77.9324 118.917 77.4333C118.967 77.3213 119.016 77.2449 119.065 77.2042C119.115 77.1532 119.189 77.1278 119.287 77.1278H119.998C120.096 77.1278 120.18 77.1583 120.249 77.2194C120.318 77.2806 120.348 77.362 120.338 77.4639C120.328 77.6778 120.284 77.8968 120.205 78.1208C120.126 78.3449 119.998 78.5741 119.82 78.8083C119.652 79.0324 119.44 79.2361 119.184 79.4194C118.927 79.5926 118.616 79.7352 118.251 79.8472C117.896 79.9491 117.492 80 117.038 80Z" fill="#717974"></path><path d="M122.451 79.8472C122.352 79.8472 122.268 79.8167 122.199 79.7556C122.14 79.6843 122.11 79.5977 122.11 79.4958V69.3514C122.11 69.2495 122.14 69.1681 122.199 69.1069C122.268 69.0356 122.352 69 122.451 69H123.191C123.299 69 123.383 69.0356 123.442 69.1069C123.501 69.1681 123.531 69.2495 123.531 69.3514V72.9111C123.797 72.5648 124.123 72.2847 124.508 72.0708C124.892 71.8569 125.381 71.75 125.973 71.75C126.614 71.75 127.157 71.8977 127.601 72.1931C128.054 72.4782 128.395 72.8806 128.622 73.4C128.859 73.9093 128.977 74.5051 128.977 75.1875V79.4958C128.977 79.5977 128.947 79.6843 128.888 79.7556C128.829 79.8167 128.745 79.8472 128.637 79.8472H127.897C127.798 79.8472 127.714 79.8167 127.645 79.7556C127.586 79.6843 127.556 79.5977 127.556 79.4958V75.2639C127.556 74.5509 127.389 73.9958 127.053 73.5986C126.718 73.1912 126.224 72.9875 125.573 72.9875C124.962 72.9875 124.468 73.1912 124.093 73.5986C123.718 73.9958 123.531 74.5509 123.531 75.2639V79.4958C123.531 79.5977 123.501 79.6843 123.442 79.7556C123.383 79.8167 123.299 79.8472 123.191 79.8472H122.451Z" fill="#717974"></path><path d="M134.266 80C133.516 80 132.889 79.8523 132.386 79.5569C131.883 79.2616 131.498 78.8542 131.232 78.3347C130.965 77.8051 130.818 77.2042 130.788 76.5319C130.778 76.3588 130.773 76.1398 130.773 75.875C130.773 75.6 130.778 75.381 130.788 75.2181C130.818 74.5356 130.965 73.9347 131.232 73.4153C131.508 72.8958 131.898 72.4884 132.401 72.1931C132.904 71.8977 133.526 71.75 134.266 71.75C135.006 71.75 135.627 71.8977 136.13 72.1931C136.633 72.4884 137.018 72.8958 137.285 73.4153C137.561 73.9347 137.714 74.5356 137.743 75.2181C137.753 75.381 137.758 75.6 137.758 75.875C137.758 76.1398 137.753 76.3588 137.743 76.5319C137.714 77.2042 137.566 77.8051 137.299 78.3347C137.033 78.8542 136.648 79.2616 136.145 79.5569C135.642 79.8523 135.015 80 134.266 80ZM134.266 78.8236C134.877 78.8236 135.366 78.625 135.731 78.2278C136.096 77.8204 136.293 77.2296 136.323 76.4556C136.333 76.3028 136.337 76.1093 136.337 75.875C136.337 75.6407 136.333 75.4472 136.323 75.2944C136.293 74.5204 136.096 73.9347 135.731 73.5375C135.366 73.1301 134.877 72.9264 134.266 72.9264C133.654 72.9264 133.161 73.1301 132.786 73.5375C132.421 73.9347 132.228 74.5204 132.209 75.2944C132.199 75.4472 132.194 75.6407 132.194 75.875C132.194 76.1093 132.199 76.3028 132.209 76.4556C132.228 77.2296 132.421 77.8204 132.786 78.2278C133.161 78.625 133.654 78.8236 134.266 78.8236Z" fill="#717974"></path><path d="M142.763 80C142.014 80 141.387 79.8523 140.884 79.5569C140.381 79.2616 139.996 78.8542 139.73 78.3347C139.463 77.8051 139.315 77.2042 139.286 76.5319C139.276 76.3588 139.271 76.1398 139.271 75.875C139.271 75.6 139.276 75.381 139.286 75.2181C139.315 74.5356 139.463 73.9347 139.73 73.4153C140.006 72.8958 140.396 72.4884 140.899 72.1931C141.402 71.8977 142.023 71.75 142.763 71.75C143.503 71.75 144.125 71.8977 144.628 72.1931C145.131 72.4884 145.516 72.8958 145.782 73.4153C146.059 73.9347 146.211 74.5356 146.241 75.2181C146.251 75.381 146.256 75.6 146.256 75.875C146.256 76.1398 146.251 76.3588 146.241 76.5319C146.211 77.2042 146.063 77.8051 145.797 78.3347C145.531 78.8542 145.146 79.2616 144.643 79.5569C144.14 79.8523 143.513 80 142.763 80ZM142.763 78.8236C143.375 78.8236 143.863 78.625 144.228 78.2278C144.593 77.8204 144.791 77.2296 144.82 76.4556C144.83 76.3028 144.835 76.1093 144.835 75.875C144.835 75.6407 144.83 75.4472 144.82 75.2944C144.791 74.5204 144.593 73.9347 144.228 73.5375C143.863 73.1301 143.375 72.9264 142.763 72.9264C142.152 72.9264 141.658 73.1301 141.283 73.5375C140.918 73.9347 140.726 74.5204 140.706 75.2944C140.696 75.4472 140.692 75.6407 140.692 75.875C140.692 76.1093 140.696 76.3028 140.706 76.4556C140.726 77.2296 140.918 77.8204 141.283 78.2278C141.658 78.625 142.152 78.8236 142.763 78.8236Z" fill="#717974"></path><path d="M148.464 79.8472C148.365 79.8472 148.282 79.8167 148.213 79.7556C148.153 79.6843 148.124 79.5977 148.124 79.4958V69.3514C148.124 69.2495 148.153 69.1681 148.213 69.1069C148.282 69.0356 148.365 69 148.464 69H149.16C149.268 69 149.352 69.0356 149.411 69.1069C149.47 69.1681 149.5 69.2495 149.5 69.3514V79.4958C149.5 79.5977 149.47 79.6843 149.411 79.7556C149.352 79.8167 149.268 79.8472 149.16 79.8472H148.464Z" fill="#717974"></path><path d="M69.2743 103.481H17.6523C9.85748 103.481 3.51562 97.149 3.51562 89.367V37.7578C3.51562 36.7874 2.72919 36 1.75781 36C0.786438 36 0 36.7874 0 37.7578V89.367C0 99.0881 7.91931 106.996 17.6523 106.996H69.2743C70.2448 106.996 71.0321 106.21 71.0321 105.239C71.0321 104.267 70.2448 103.481 69.2743 103.481Z" fill="#ECECE7"></path><path d="M136.758 3.51581H188.38C196.175 3.51581 202.517 9.8476 202.517 17.6296V69.2388C202.517 70.2092 203.303 70.9966 204.274 70.9966C205.246 70.9966 206.032 70.2092 206.032 69.2388V17.6296C206.032 7.90851 198.113 0.000183105 188.38 0.000183105H136.758C135.787 0.000183105 135 0.786621 135 1.758C135 2.72937 135.787 3.51581 136.758 3.51581Z" fill="#ECECE7"></path></svg>